<svg width="150" height="29" viewBox="0 0 150 29" fill="none" xmlns="http://www.w3.org/2000/svg">
<path d="M29.6196 23.7882C29.3835 23.4124 29.0748 23.0873 28.7116 22.8322C28.3485 22.577 27.938 22.3968 27.5044 22.302C25.8454 21.9162 24.4065 20.8893 23.5022 19.4459C22.598 18.0024 22.3019 16.2596 22.6786 14.5985C22.8234 13.9565 22.7753 13.2859 22.5403 12.6711C22.3053 12.0563 21.8939 11.5247 21.3577 11.143C20.8215 10.7613 20.1845 10.5465 19.5267 10.5256C18.8688 10.5047 18.2195 10.6787 17.6602 11.0256C17.1009 11.3726 16.6566 11.8771 16.3831 12.4757C16.1096 13.0744 16.019 13.7405 16.1229 14.3904C16.2267 15.0404 16.5203 15.6452 16.9667 16.1288C17.4131 16.6124 17.9924 16.9534 18.632 17.1088C19.4594 17.2954 20.2418 17.6435 20.9344 18.1331C21.627 18.6227 22.2161 19.2442 22.6681 19.9619C23.12 20.6797 23.4258 21.4795 23.5681 22.3157C23.7103 23.1518 23.6861 24.0079 23.4968 24.8346C23.3848 25.3677 23.4047 25.92 23.555 26.4434C23.7054 26.9669 23.9814 27.4457 24.3592 27.8381C24.7369 28.2304 25.2048 28.5244 25.7223 28.6945C26.2397 28.8646 26.7908 28.9055 27.3277 28.8137C27.8645 28.722 28.3708 28.5003 28.8024 28.1681C29.2339 27.8358 29.5777 27.4031 29.8037 26.9076C30.0296 26.412 30.131 25.8687 30.099 25.325C30.0669 24.7813 29.9023 24.2537 29.6196 23.7882Z" fill="#F97316"/>
<path d="M9.08458 20.0812C9.66883 20.4 10.335 20.5371 10.9976 20.4746C11.6602 20.4122 12.2891 20.1533 12.8035 19.731C13.3179 19.3086 13.6944 18.7423 13.8847 18.1045C14.075 17.4667 14.0704 16.7867 13.8715 16.1515C13.6193 15.3416 13.5295 14.49 13.6072 13.6453C13.6848 12.8007 13.9284 11.9797 14.324 11.2294C14.7196 10.4791 15.2594 9.81419 15.9124 9.27289C16.5655 8.73159 17.3189 8.32455 18.1296 8.07503C18.7583 7.8781 19.3147 7.49957 19.7288 6.98714C20.1429 6.47471 20.3962 5.85124 20.4568 5.19517C20.5174 4.5391 20.3826 3.87976 20.0694 3.30018C19.7561 2.72055 19.2784 2.24653 18.6964 1.93778C18.1144 1.62903 17.454 1.49929 16.7985 1.56498C16.1429 1.63062 15.5214 1.8887 15.0122 2.30677C14.5029 2.7248 14.1288 3.28414 13.9366 3.91436C13.7446 4.54458 13.7432 5.21754 13.9327 5.84854C14.4301 7.47757 14.2619 9.23735 13.4649 10.7427C12.6679 12.248 11.3071 13.3762 9.68016 13.8805C9.03792 14.0668 8.46635 14.4415 8.03948 14.9562C7.61261 15.471 7.35008 16.102 7.28591 16.7676C7.22178 17.4333 7.35891 18.1028 7.6796 18.6896C8.0003 19.2764 8.48974 19.7535 9.08458 20.0589V20.0812Z" fill="#F97316"/>
<path d="M17.6792 19.5357C17.2351 19.5513 16.7987 19.6554 16.3953 19.8418C15.992 20.0281 15.6299 20.2931 15.3302 20.6212C14.1677 21.8646 12.56 22.5972 10.8588 22.6588C9.15763 22.7203 7.50124 22.1058 6.25184 20.9496C5.92902 20.6467 5.54923 20.411 5.13451 20.2561C4.71983 20.1013 4.27848 20.0305 3.83616 20.0478C3.2917 20.0735 2.76177 20.2321 2.29269 20.5097C1.82358 20.7873 1.42959 21.1754 1.14505 21.6403C0.860476 22.1052 0.694056 22.6327 0.660232 23.1767C0.626449 23.7207 0.726285 24.2647 0.951109 24.7613C1.17593 25.2578 1.51883 25.6918 1.94996 26.0253C2.38108 26.3589 2.88725 26.5818 3.42434 26.6747C3.96143 26.7675 4.51313 26.7276 5.0312 26.5582C5.54931 26.3889 6.01806 26.0953 6.39655 25.7031C6.97233 25.0797 7.66541 24.576 8.43612 24.2209C9.20687 23.8658 10.0401 23.6662 10.888 23.6337C11.736 23.6011 12.5821 23.7361 13.3778 24.031C14.1735 24.326 14.9032 24.775 15.5251 25.3524C15.9299 25.7182 16.4183 25.9793 16.9473 26.1127C17.4765 26.2461 18.0302 26.2479 18.5601 26.1178C19.09 25.9878 19.58 25.7298 19.9872 25.3666C20.3943 25.0034 20.7063 24.5459 20.8959 24.0342C21.0853 23.5225 21.1466 22.9722 21.0742 22.4313C21.0018 21.8905 20.798 21.3757 20.4806 20.9318C20.1632 20.488 19.742 20.1287 19.2536 19.8853C18.7652 19.6419 18.2246 19.5219 17.6792 19.5357Z" fill="#F97316"/>
<path d="M52.7782 24.0052C54.5715 24.0052 55.6893 23.3542 56.1315 22.0522C56.2789 21.5608 56.3894 20.9344 56.4631 20.1729L55.505 20.136C55.3577 21.8311 54.9277 22.6909 54.2153 22.7154C53.6749 22.6663 53.4047 22.0522 53.4047 20.873V13.1715C53.4047 10.1008 51.9798 8.20921 49.1302 7.49679C48.3932 7.32483 47.5948 7.23885 46.735 7.23885C43.394 7.23885 41.2936 7.96355 40.4338 9.41294C40.2127 9.78144 40.1022 10.1745 40.1022 10.5921C40.1022 11.5502 40.5566 12.1521 41.4656 12.3977C41.6867 12.4714 41.92 12.5083 42.1657 12.5083C43.222 12.5083 43.9345 11.9924 44.3029 10.9606C44.3521 10.8132 44.4258 10.5675 44.524 10.2236C44.7943 9.24098 45.1382 8.62683 45.5558 8.38117C45.826 8.25834 46.1331 8.19693 46.477 8.19693C47.6316 8.19693 48.3318 8.89706 48.5774 10.2973C48.6757 10.8132 48.7248 11.4274 48.7248 12.1398V14.535C42.4114 14.6578 39.2423 16.3283 39.2178 19.5464C39.2178 21.7328 40.1758 23.1331 42.092 23.7472C42.657 23.9192 43.2835 24.0052 43.9713 24.0052C46.0594 24.0052 47.5948 23.2191 48.5774 21.6468C48.774 21.3275 48.9336 20.9958 49.0565 20.6519C49.5724 22.7646 50.8129 23.8823 52.7782 24.0052ZM45.8874 22.4207C44.6591 22.3715 44.0327 21.2783 44.0081 19.1411C44.0081 17.5197 44.6714 16.4634 45.998 15.9721C46.7104 15.751 47.6194 15.6159 48.7248 15.5667V19.1411C48.2581 20.8607 47.5088 21.9171 46.477 22.3101C46.2559 22.3838 46.0594 22.4207 45.8874 22.4207Z" fill="#18181B"/>
<path d="M66.9283 22.6786H64.2014V14.7192C64.3734 12.1398 64.9998 10.5675 66.0807 10.0025C66.2527 9.92883 66.4124 9.89198 66.5598 9.89198C66.83 9.89198 67.1248 10.1745 67.4441 10.7395C67.8863 11.5256 68.3654 12.0169 68.8813 12.2135C69.1269 12.2872 69.3971 12.324 69.6919 12.324C70.6746 12.324 71.3747 11.8573 71.7923 10.9238C71.9397 10.6044 72.0134 10.2728 72.0134 9.92883C72.0134 8.70053 71.4116 7.9267 70.2078 7.60734C69.913 7.53364 69.6059 7.49679 69.2866 7.49679C67.7635 7.49679 66.4246 8.09866 65.27 9.3024C64.7542 9.89198 64.3611 10.5307 64.0909 11.2185L63.8329 7.79159H57.3843V8.74966H59.5216V20.7624C59.5216 21.8434 59.0917 22.4575 58.2319 22.6049C57.9862 22.654 57.7037 22.6786 57.3843 22.6786V23.6367H67.8126C67.8126 23.0717 67.653 22.7646 67.3336 22.7154C67.2108 22.6909 67.0756 22.6786 66.9283 22.6786Z" fill="#18181B"/>
<path d="M78.3515 15.6404C78.3515 12.2012 78.7691 10.0025 79.6043 9.04445C80.1202 8.47943 80.8449 8.19693 81.7784 8.19693C83.3506 8.19693 84.3578 8.99532 84.8 10.5921C85.0948 11.6239 85.2422 13.2575 85.2422 15.493C85.2422 19.0797 84.7755 21.3398 83.842 22.2733C83.3015 22.7891 82.6014 23.0471 81.7416 23.0471C80.2185 23.0471 79.2358 22.261 78.7936 20.6888C78.4989 19.6324 78.3515 17.9496 78.3515 15.6404ZM81.9627 7.23885C78.941 7.23885 76.6195 8.27062 74.9982 10.3342C73.8682 11.8081 73.3031 13.5278 73.3031 15.493C73.3031 18.269 74.2612 20.4677 76.1774 22.089C77.7005 23.3664 79.5183 24.0052 81.631 24.0052C84.5298 24.0052 86.8022 22.9611 88.4481 20.873C89.6764 19.3008 90.2905 17.4829 90.2905 15.4193C90.2905 12.6679 89.3202 10.5184 87.3795 8.97076C85.8809 7.81615 84.0753 7.23885 81.9627 7.23885Z" fill="#18181B"/>
<path d="M99.6133 22.6786H98.9501L98.9869 13.1715C99.1343 11.2308 99.773 9.96568 100.903 9.37609C101.222 9.20413 101.542 9.11815 101.861 9.11815C102.77 9.11815 103.421 9.68317 103.814 10.8132C103.986 11.3537 104.072 11.9555 104.072 12.6188V20.7624C104.072 21.7697 103.839 22.3715 103.372 22.5681C103.151 22.6418 102.844 22.6786 102.451 22.6786V23.6367H110.263C110.263 23.0717 110.103 22.7646 109.784 22.7154C109.636 22.6909 109.489 22.6786 109.341 22.6786H108.715V13.2452V12.9873C108.887 10.9483 109.55 9.68317 110.705 9.19185C110.951 9.09359 111.196 9.04445 111.442 9.04445C112.498 9.04445 113.223 9.67089 113.616 10.9238C113.763 11.4396 113.837 12.0047 113.837 12.6188V20.7624C113.837 21.7697 113.604 22.3715 113.137 22.5681C112.916 22.6418 112.609 22.6786 112.216 22.6786V23.6367H120.617C120.617 23.0717 120.458 22.7646 120.138 22.7154C119.991 22.6909 119.843 22.6786 119.696 22.6786H118.48V13.061C118.48 10.6535 117.682 8.94619 116.085 7.93898C115.348 7.47223 114.549 7.23885 113.69 7.23885C111.307 7.26342 109.526 8.40574 108.347 10.6658C107.757 8.92162 106.713 7.82844 105.214 7.38625C104.821 7.28798 104.428 7.23885 104.035 7.23885C101.677 7.26342 99.9573 8.34432 98.8764 10.4816L98.6921 7.79159H92.133V8.74966H94.2702V20.7624C94.2702 21.8925 93.7421 22.5189 92.6857 22.6418C92.5138 22.6663 92.3295 22.6786 92.133 22.6786V23.6367H100.498C100.498 23.0717 100.338 22.7646 100.019 22.7154C99.8959 22.6909 99.7607 22.6786 99.6133 22.6786Z" fill="#18181B"/>
<path d="M130.272 22.6786H128.908V7.79159H122.091V8.74966H124.229V20.7624C124.229 21.8434 123.799 22.4575 122.939 22.6049C122.693 22.654 122.411 22.6786 122.091 22.6786V23.6367H131.156C131.156 23.0717 130.996 22.7646 130.677 22.7154C130.554 22.6909 130.419 22.6786 130.272 22.6786ZM129.24 2.96436C129.24 1.88346 128.761 1.08506 127.803 0.569174C127.385 0.323514 126.943 0.200684 126.476 0.200684C125.42 0.200684 124.622 0.679721 124.081 1.6378C123.86 2.05542 123.749 2.49761 123.749 2.96436C123.749 4.04527 124.229 4.83138 125.187 5.3227C125.604 5.54379 126.034 5.65434 126.476 5.65434C127.557 5.65434 128.356 5.19987 128.871 4.29093C129.117 3.8733 129.24 3.43112 129.24 2.96436Z" fill="#18181B"/>
<path d="M132.077 23.6367H137.642V22.6786H135.062L139.484 17.1512L143.169 22.6786H141.142V23.6367H149.654C149.654 23.0717 149.458 22.7646 149.065 22.7154C148.966 22.6909 148.856 22.6786 148.733 22.6786H147.996L142.616 14.5718L146.264 9.81828C146.756 9.155 147.382 8.78651 148.144 8.71281C148.512 8.66368 148.733 8.51628 148.807 8.27062C148.831 8.12323 148.844 7.96355 148.844 7.79159H143.39V8.74966H145.785L141.99 13.6506L138.747 8.74966H140.774V7.79159H132.225V8.74966H133.92L138.931 16.2669L134.583 21.61C134.067 22.2241 133.441 22.5926 132.704 22.7154C132.36 22.74 132.163 22.8874 132.114 23.1576C132.09 23.305 132.077 23.4647 132.077 23.6367Z" fill="#18181B"/>
</svg>
