<svg width="103" height="32" viewBox="0 0 103 32" fill="none" xmlns="http://www.w3.org/2000/svg">
<path d="M19.0984 7.59301C15.1477 7.59301 7.234 4.39036 7.234 0.439453H7.1755C7.1755 3.60157 8.43161 6.63417 10.6675 8.87017C12.9034 11.1062 15.936 12.3624 19.0981 12.3625C20.9954 12.3625 22.815 13.1162 24.1566 14.4578C25.4983 15.7993 26.252 17.619 26.252 19.5162C26.2524 21.4135 25.499 23.2334 24.1577 24.5752C22.8163 25.9171 20.9969 26.6711 19.0996 26.6716C17.2022 26.6719 15.3824 25.9185 14.0406 24.5771C12.6987 23.2358 11.9446 21.4163 11.9443 19.5191C11.9442 17.9533 11.6358 16.4028 11.0365 14.9563C10.4373 13.5097 9.55901 12.1953 8.45181 11.0882C7.3446 9.98107 6.03019 9.10286 4.58358 8.50371C3.13698 7.90458 1.58652 7.59623 0.020752 7.59629V7.65433C3.97091 7.65433 7.17358 15.5646 7.17506 19.5161H7.17431C7.17429 21.8743 7.87352 24.1795 9.1836 26.1402C10.4937 28.101 12.3558 29.6292 14.5344 30.5316C16.713 31.4342 19.1103 31.6704 21.4233 31.2104C23.736 30.7504 25.8606 29.6149 27.5282 27.9476C29.1956 26.2802 30.3313 24.1558 30.7915 21.8429C31.2517 19.5301 31.0157 17.1328 30.1134 14.9541C29.2111 12.7754 27.683 10.9131 25.7224 9.60288C23.7617 8.29263 21.4565 7.59319 19.0984 7.59301Z" fill="url(#paint0_linear_2436_1040)"/>
<path d="M42.692 29.7369C42.692 30.1069 43.025 30.4399 43.395 30.4399H45.245C45.689 30.4399 46.281 30.2919 46.281 29.7369V18.7109H53.348V29.7369C53.348 30.1069 53.681 30.4399 54.051 30.4399H56.16C56.53 30.4399 56.863 30.1069 56.863 29.7369V16.3429C56.863 15.9729 56.53 15.6399 56.16 15.6399H46.281V11.0519C46.281 8.49892 47.835 7.42592 49.352 7.42592C50.98 7.42592 52.867 8.42492 53.2 8.60992C53.607 8.83192 53.94 8.86892 54.162 8.42492L55.087 6.75992C55.272 6.46392 55.198 6.01992 54.902 5.83492C54.125 5.35392 51.831 4.16992 49.352 4.16992C45.689 4.16992 42.692 6.64892 42.692 11.0519V15.6399H40.953C40.546 15.6399 40.25 15.9359 40.25 16.3429V18.0079C40.25 18.3779 40.546 18.7109 40.953 18.7109H42.692V29.7369Z" fill="#18181B"/>
<path d="M61.671 29.7369C61.671 30.1069 62.004 30.4399 62.374 30.4399H64.15C64.742 30.4399 65.149 30.3659 65.149 29.7369V20.3389C65.297 20.0799 66.333 18.5259 68.479 18.5259C68.96 18.5259 69.515 18.6739 69.737 18.7849C70.07 18.9329 70.44 18.8589 70.625 18.4519L71.513 16.6389C71.92 15.6399 70.218 15.2699 68.812 15.2699C66.111 15.2699 64.742 17.0459 64.483 17.4159L64.076 16.1579C64.002 15.8619 63.706 15.6399 63.447 15.6399H62.374C62.004 15.6399 61.671 15.9729 61.671 16.3429V29.7369Z" fill="#18181B"/>
<path d="M72.9193 23.0399C72.9193 27.2949 75.8793 30.8099 80.3563 30.8099C82.8353 30.8099 84.7593 29.8849 85.8323 28.9599C86.2763 28.5899 86.1653 28.2939 85.9063 27.9979L84.8703 26.5919C84.5743 26.2219 84.3153 26.3699 83.8713 26.6289C83.1313 27.1099 81.9103 27.7019 80.5783 27.7019C78.1733 27.7019 76.4343 25.7409 76.3233 23.7429H86.3873C86.7203 23.7429 87.0163 23.4839 87.0533 23.1139C87.0903 22.8549 87.1273 22.3739 87.1273 22.1149C87.1273 18.1559 84.1673 15.2699 80.3193 15.2699C75.8793 15.2699 72.9193 18.8589 72.9193 23.0399ZM76.5083 21.4119C76.7303 19.5619 78.2843 18.1189 80.2823 18.1189C82.0953 18.1189 83.5753 19.6359 83.6863 21.4119H76.5083Z" fill="#18181B"/>
<path d="M90.6856 29.7369C90.6856 30.1069 91.0186 30.4399 91.3886 30.4399H93.4976C93.8676 30.4399 94.2006 30.1069 94.2006 29.7369V5.24292C94.2006 4.87292 93.8676 4.53992 93.4976 4.53992H91.3886C91.0186 4.53992 90.6856 4.87292 90.6856 5.24292V29.7369Z" fill="#18181B"/>
<path d="M100.698 9.60892C101.919 9.60892 102.881 8.64692 102.881 7.46292C102.881 6.24192 101.919 5.27992 100.698 5.27992C99.5142 5.27992 98.5892 6.24192 98.5892 7.46292C98.5892 8.64692 99.5142 9.60892 100.698 9.60892ZM98.9962 29.7369C98.9962 30.1069 99.3292 30.4399 99.6992 30.4399H101.808C102.178 30.4399 102.511 30.1069 102.511 29.7369V16.3429C102.511 15.9729 102.178 15.6399 101.808 15.6399H99.6992C99.3292 15.6399 98.9962 15.9729 98.9962 16.3429V29.7369Z" fill="#18181B"/>
<defs>
<linearGradient id="paint0_linear_2436_1040" x1="15.5208" y1="0.439453" x2="15.5208" y2="31.4395" gradientUnits="userSpaceOnUse">
<stop stop-color="#E95E51"/>
<stop offset="1" stop-color="#FBA300"/>
</linearGradient>
</defs>
</svg>
