<svg width="150" height="26" viewBox="0 0 150 26" fill="none" xmlns="http://www.w3.org/2000/svg">
<path d="M144.58 20.9596C144.104 20.4282 143.7 19.8351 143.379 19.1962C142.871 18.1948 142.17 17.3058 141.317 16.5816C140.463 15.8573 139.474 15.3125 138.408 14.9792C137.476 14.6889 136.501 14.5657 135.526 14.6151C136.236 14.5743 136.934 14.8049 137.481 15.2609C138.029 15.7168 138.385 16.3642 138.479 17.0735C138.735 18.6061 139.409 20.0367 140.426 21.2054C141.443 22.3743 142.763 23.2352 144.238 23.6922C145.924 24.2143 147.731 24.1861 149.401 23.6119C147.541 23.3064 145.84 22.3708 144.58 20.9596Z" fill="#22D3EE"/>
<path d="M132.624 14.4636C132.841 15.4098 133.223 16.3112 133.752 17.1272C133.366 16.5347 133.217 15.82 133.335 15.124C133.454 14.4279 133.83 13.8012 134.391 13.3674C135.583 12.3893 136.477 11.1021 136.975 9.64928C137.473 8.19643 137.554 6.63494 137.211 5.1387C136.819 3.42705 135.889 1.88337 134.556 0.730469C135.22 2.49194 135.258 4.42564 134.664 6.21161C134.437 6.88586 134.12 7.52736 133.724 8.11951C133.115 9.04972 132.7 10.0917 132.504 11.1838C132.308 12.2758 132.335 13.3959 132.582 14.4776L132.624 14.4636Z" fill="#8B5CF6"/>
<path d="M136.779 17.7578C136.464 18.3944 135.923 18.8864 135.266 19.1352C134.609 19.3839 133.883 19.371 133.235 19.0991C131.806 18.5552 130.257 18.4255 128.759 18.7247C127.262 19.0239 125.877 19.7402 124.757 20.7934C123.481 21.9997 122.614 23.5867 122.283 25.3256C123.471 23.8609 125.115 22.8514 126.944 22.4641C127.631 22.3213 128.333 22.2659 129.033 22.2994C130.132 22.3572 131.231 22.1909 132.265 21.8102C133.299 21.4294 134.248 20.8421 135.055 20.0827C135.762 19.4162 136.348 18.6294 136.788 17.7578H136.779Z" fill="#2DD4BF"/>
<path d="M0.913818 25.2152H4.89549V15.5193C4.89549 14.4454 5.18931 13.5842 5.77693 12.9358C6.36456 12.2874 7.13455 11.9632 8.08691 11.9632C9.05954 11.9632 9.82953 12.2874 10.3969 12.9358C10.9845 13.564 11.2783 14.4251 11.2783 15.5193V25.2152H15.26V15.5193C15.26 14.4454 15.5538 13.5842 16.1415 12.9358C16.7291 12.2874 17.4991 11.9632 18.4514 11.9632C19.4241 11.9632 20.194 12.2874 20.7614 12.9358C21.349 13.564 21.6429 14.4251 21.6429 15.5193V25.2152H25.6245V14.5771C25.6245 13.3411 25.351 12.257 24.8039 11.3249C24.277 10.3725 23.5577 9.63294 22.6459 9.1061C21.734 8.57926 20.6905 8.31584 19.5152 8.31584C18.421 8.31584 17.4282 8.53874 16.5366 8.98452C15.6653 9.43031 14.9459 10.099 14.3786 10.9906C13.8923 10.18 13.1932 9.53162 12.2814 9.04531C11.3898 8.559 10.3868 8.31584 9.2723 8.31584C8.23889 8.31584 7.31692 8.51847 6.5064 8.92373C5.69588 9.32899 5.07786 9.93688 4.65234 10.7474V8.68058H0.913818V25.2152Z" fill="#0F172A"/>
<path d="M34.0082 25.5799C36.1561 25.5799 37.8784 24.8707 39.1752 23.4523V25.2152H42.9442V14.2124C42.9442 13.0574 42.6503 12.0341 42.0627 11.1425C41.4751 10.251 40.6646 9.56202 39.6312 9.07571C38.618 8.56913 37.4326 8.31584 36.075 8.31584C34.4134 8.31584 32.9342 8.71097 31.6374 9.50123C30.3406 10.2915 29.449 11.335 28.9627 12.6319L32.2149 14.2124C32.5189 13.4626 32.995 12.8649 33.6434 12.4191C34.2919 11.953 35.0517 11.72 35.923 11.72C36.8349 11.72 37.5643 11.9632 38.1114 12.4495C38.6788 12.9155 38.9625 13.5032 38.9625 14.2124V14.7595L34.0386 15.5497C32.0933 15.8739 30.6547 16.492 29.7226 17.4038C28.7905 18.3156 28.3244 19.4605 28.3244 20.8384C28.3244 22.2973 28.8411 23.4523 29.8745 24.3033C30.9079 25.1544 32.2858 25.5799 34.0082 25.5799ZM32.4581 20.6864C32.4581 19.5314 33.2382 18.8019 34.7984 18.498L38.9625 17.7989V18.4676C38.9625 19.6023 38.5674 20.5648 37.7771 21.3551C37.0071 22.1453 35.9939 22.5405 34.7376 22.5405C34.069 22.5405 33.5219 22.3784 33.0963 22.0541C32.6708 21.7097 32.4581 21.2538 32.4581 20.6864Z" fill="#0F172A"/>
<path d="M46.6243 25.2152H50.6059V16.0056C50.6059 14.7493 50.9504 13.7767 51.6394 13.0878C52.3486 12.3786 53.2604 12.024 54.3749 12.024H55.8034V8.49821H54.8308C53.8176 8.49821 52.926 8.68058 52.1561 9.04531C51.3861 9.41005 50.7883 10.0686 50.3628 11.021V8.68058H46.6243V25.2152Z" fill="#0F172A"/>
<path d="M65.9756 25.3975C66.6442 25.3975 67.3028 25.3469 67.9512 25.2456V21.811C67.5662 21.8718 67.2116 21.9022 66.8874 21.9022C65.9148 21.9022 65.2056 21.6793 64.7598 21.2335C64.314 20.7877 64.0911 20.1494 64.0911 19.3186V12.2367H67.8904V8.68058H64.0911V4.91166H60.1094V6.18823C60.1094 6.99875 59.8865 7.61677 59.4408 8.0423C58.995 8.46782 58.3668 8.68058 57.5563 8.68058H57.2524V12.2367H60.1094V19.5314C60.1094 21.3753 60.616 22.814 61.6292 23.8474C62.6626 24.8808 64.1114 25.3975 65.9756 25.3975Z" fill="#0F172A"/>
<path d="M70.9933 6.82652H74.9749V2.57129H70.9933V6.82652ZM70.9933 25.2152H74.9749V8.68058H70.9933V25.2152Z" fill="#0F172A"/>
<path d="M78.6513 25.2152H82.6329V15.5193C82.6329 14.4454 82.9369 13.5842 83.5448 12.9358C84.1729 12.2874 84.9834 11.9632 85.9763 11.9632C86.9692 11.9632 87.7696 12.2874 88.3775 12.9358C89.0056 13.564 89.3197 14.4251 89.3197 15.5193V25.2152H93.3014V14.5771C93.3014 13.3411 93.038 12.257 92.5111 11.3249C91.9843 10.3725 91.2447 9.63294 90.2923 9.1061C89.3602 8.57926 88.2863 8.31584 87.0705 8.31584C86.0371 8.31584 85.105 8.51847 84.2742 8.92373C83.4637 9.32899 82.8356 9.92675 82.3898 10.717V8.68058H78.6513V25.2152Z" fill="#0F172A"/>
<path d="M104.753 25.5799C106.354 25.5799 107.813 25.2152 109.13 24.4857C110.447 23.736 111.501 22.7127 112.291 21.4159C113.081 20.0988 113.476 18.6094 113.476 16.9479C113.476 15.2863 113.081 13.8071 112.291 12.5103C111.521 11.2135 110.478 10.1902 109.16 9.44044C107.843 8.69071 106.374 8.31584 104.753 8.31584C103.112 8.31584 101.633 8.69071 100.316 9.44044C98.9985 10.1902 97.9449 11.2135 97.1546 12.5103C96.3846 13.8071 95.9996 15.2863 95.9996 16.9479C95.9996 18.6094 96.3846 20.0886 97.1546 21.3855C97.9449 22.6823 98.9985 23.7056 100.316 24.4553C101.653 25.205 103.132 25.5799 104.753 25.5799ZM104.753 21.9326C103.862 21.9326 103.061 21.7198 102.352 21.2943C101.663 20.8688 101.116 20.2811 100.711 19.5314C100.326 18.7614 100.133 17.9002 100.133 16.9479C100.133 15.9955 100.326 15.1445 100.711 14.3947C101.116 13.645 101.663 13.0574 102.352 12.6319C103.061 12.1861 103.862 11.9632 104.753 11.9632C105.645 11.9632 106.425 12.1861 107.094 12.6319C107.783 13.0574 108.32 13.645 108.704 14.3947C109.11 15.1445 109.312 15.9955 109.312 16.9479C109.312 17.9002 109.11 18.7614 108.704 19.5314C108.32 20.2811 107.783 20.8688 107.094 21.2943C106.425 21.7198 105.645 21.9326 104.753 21.9326Z" fill="#0F172A"/>
</svg>
