<svg width="129" height="28" viewBox="0 0 129 28" fill="none" xmlns="http://www.w3.org/2000/svg">
<path d="M15.0949 23.1281C14.4953 24.0582 14.1955 24.6616 14.1955 24.9381C14.1955 25.2398 14.3079 25.4409 14.5328 25.5415C14.5328 25.5917 14.3204 25.7426 13.8957 25.994C13.4959 26.2705 12.9338 26.4088 12.2092 26.4088C11.4847 26.4088 11.1224 26.2202 11.1224 25.8431C11.1224 25.1895 12.3466 23.0275 14.7951 19.3571C17.2686 15.6616 18.8926 13.1099 19.6671 11.7021C21.366 8.63504 22.2155 6.20906 22.2155 4.42415C22.2155 3.72024 22.0781 3.06661 21.8033 2.46325C21.3785 1.55823 20.3542 1.10571 18.7302 1.10571C15.757 1.10571 12.5965 2.47582 9.24857 5.21605C6.70015 7.32778 4.73887 9.51493 3.36472 11.7775C2.1155 13.9144 1.49089 15.825 1.49089 17.5093C1.49089 19.9228 2.6027 21.1546 4.82632 21.2049C4.92625 21.2049 5.02619 21.2049 5.12613 21.2049C8.0743 21.2049 10.3104 20.1616 11.8345 18.075C12.4341 17.2454 12.7339 16.5415 12.7339 15.9633C12.7339 15.385 12.5965 15.0205 12.3217 14.8697C12.2967 14.8445 12.2842 14.7943 12.2842 14.7188C12.2842 14.6434 12.3591 14.6057 12.509 14.6057C13.1586 14.6057 13.4834 15.0331 13.4834 15.8878C13.4834 16.4158 13.2336 17.1322 12.7339 18.0373C12.2342 18.9423 11.3223 19.7971 9.9981 20.6015C8.69891 21.406 7.21233 21.8082 5.53837 21.8082C3.86441 21.8082 2.54024 21.318 1.56584 20.3376C0.591446 19.3571 0.104248 18.0373 0.104248 16.3781C0.104248 12.4563 2.77759 8.33336 8.12427 4.00934C9.47343 2.92834 11.2223 2.02331 13.371 1.29426C15.5447 0.565209 17.5059 0.200684 19.2549 0.200684C21.0288 0.200684 22.278 0.540068 23.0025 1.21884C23.7271 1.87247 24.0894 2.79007 24.0894 3.97163C24.0894 6.83755 22.3654 10.8976 18.9176 16.1518C19.6921 15.1714 20.9538 13.9269 22.7027 12.4186C28.9239 7.16437 34.2705 3.70767 38.7427 2.04845C38.9676 1.94789 39.2175 1.89761 39.4923 1.89761C40.4417 1.89761 41.0413 2.43811 41.2912 3.51912C41.4161 3.94649 40.8165 4.83895 39.4923 6.19649C36.3692 9.41437 33.7209 12.9339 31.5472 16.7552C29.3736 20.5764 28.2867 23.3166 28.2867 24.9758C28.2867 25.3781 28.3617 25.6546 28.5116 25.8054C28.6615 25.9814 28.8989 26.0317 29.2237 25.9563C29.5485 25.906 30.223 25.6546 31.2474 25.2021C32.2968 24.7496 32.9838 24.4856 33.3086 24.4102C33.4336 24.4605 33.496 24.5233 33.496 24.5987C33.496 24.9758 32.8339 25.5038 31.5097 26.1825C30.2106 26.8613 29.2362 27.2007 28.5866 27.2007C27.937 27.2007 27.5247 27.0876 27.3498 26.8613C26.9001 26.2328 26.6752 25.4409 26.6752 24.4856C26.6752 22.3236 27.8245 19.2188 30.1231 15.1714C31.5972 12.6322 33.8708 9.21325 36.9439 4.91437C33.6209 5.21605 29.3236 7.85571 24.0519 12.8334C19.8545 16.8306 16.8688 20.2621 15.0949 23.1281Z" fill="#18181B"/>
<path d="M47.1677 12.3054L47.6924 12.1923C47.9672 12.1923 48.2295 12.3054 48.4794 12.5317C48.7292 12.7579 48.8541 12.9339 48.8541 13.0596C48.8541 13.1853 48.0796 14.4046 46.5306 16.7174C44.9816 19.0052 44.207 20.6015 44.207 21.5065C44.207 21.582 44.2195 21.6574 44.2445 21.7328C44.3694 22.311 44.6443 22.6001 45.069 22.6001C46.3682 22.6001 48.7417 20.4381 52.1896 16.1141C52.2645 16.0135 52.352 15.9633 52.4519 15.9633C52.5518 15.9633 52.6018 16.0638 52.6018 16.2649C52.6018 16.4409 52.4894 16.6797 52.2645 16.9814C49.0665 21.2803 46.6305 23.4297 44.9566 23.4297C44.7317 23.4297 44.5193 23.392 44.3195 23.3166C43.2201 22.8892 42.6705 22.0596 42.6705 20.8278C42.6705 20.4004 42.7205 19.973 42.8204 19.5457L40.4968 21.8082C39.0228 23.1155 37.9484 23.7691 37.2738 23.7691C36.6242 23.7691 35.9996 23.5554 35.4 23.1281C34.7254 22.6253 34.3881 21.9591 34.3881 21.1295C34.3881 19.2943 35.6623 17.1071 38.2108 14.568C40.7592 12.0038 43.0952 10.7216 45.2189 10.7216C46.0434 10.7216 46.5931 11.0107 46.8679 11.589C46.9428 11.7901 47.0053 11.966 47.0553 12.1169C47.1052 12.2426 47.1427 12.3054 47.1677 12.3054ZM35.9622 21.582C35.9622 22.487 36.2745 22.9395 36.8991 22.9395C38.3482 22.9395 40.3219 21.3431 42.8204 18.1504L46.7929 12.6448C46.5931 12.2929 46.2683 12.1169 45.8185 12.1169C44.2945 12.1169 42.2707 13.311 39.7473 15.6993C37.2239 18.0624 35.9622 20.0233 35.9622 21.582Z" fill="#18181B"/>
<path d="M59.9139 11.4381L65.3105 11.3627C65.3855 11.413 65.423 11.4507 65.423 11.4758C65.423 11.7021 63.8614 12.0163 60.7384 12.4186C57.6403 12.8208 55.9663 13.0596 55.7165 13.135C55.2418 13.5624 54.3673 14.8445 53.0931 16.9814C51.8189 19.0931 51.1818 20.6392 51.1818 21.6197C51.1818 22.5498 51.8189 23.0149 53.0931 23.0149C53.6927 23.0149 54.4798 22.8264 55.4541 22.4493C56.4285 22.0722 57.1781 21.7202 57.7028 21.3934C59.1019 20.5135 60.601 19.2188 62.2 17.5093C62.5497 17.1574 62.7871 16.9814 62.912 16.9814C62.987 16.9814 63.0244 17.0568 63.0244 17.2077C63.0244 17.3585 62.8371 17.6602 62.4623 18.1127C61.1631 19.7216 59.7015 21.0163 58.0775 21.9968C56.1287 23.2035 54.2674 23.8068 52.4935 23.8068C51.719 23.8068 51.0819 23.6434 50.5822 23.3166C50.1075 22.9646 49.8701 22.2733 49.8701 21.2426C49.8701 20.2119 50.3198 18.804 51.2193 17.0191C52.1187 15.2091 52.8058 13.8641 53.2805 12.9842C52.9307 13.0596 52.6309 13.0973 52.3811 13.0973C51.6565 13.0973 51.2942 12.8082 51.2942 12.23C51.2942 11.8026 51.594 11.501 52.1937 11.325C52.2686 11.325 52.3811 11.3124 52.531 11.2873H54.7046C55.1543 10.7091 55.6665 10.0429 56.2412 9.28867C56.9407 8.38364 57.4154 7.93113 57.6653 7.93113C57.9151 7.93113 58.2274 8.03169 58.6022 8.23281C58.977 8.43392 59.1643 8.67275 59.1643 8.94929C59.1643 9.22582 58.5647 10.0429 57.3655 11.4004C58.0151 11.4255 58.8645 11.4381 59.9139 11.4381Z" fill="#18181B"/>
<path d="M68.9036 23.7691C67.0298 23.7691 66.0928 22.7258 66.0928 20.6392C66.0928 19.5834 66.3677 18.4269 66.9173 17.17C67.467 15.913 68.0666 14.8571 68.7162 14.0024C68.5913 14.0275 68.4289 14.0401 68.229 14.0401C67.6294 14.0401 67.1297 13.6127 66.73 12.7579L63.9567 16.3781C62.4076 18.3138 61.5082 19.2817 61.2584 19.2817C61.1334 19.2817 61.071 19.2314 61.071 19.1309C61.071 18.8795 61.2833 18.5149 61.7081 18.0373C63.8817 15.4982 65.4183 13.3487 66.3177 11.589C66.8924 9.4018 67.6169 8.30822 68.4914 8.30822C69.066 8.30822 69.3533 8.55962 69.3533 9.06242C69.3533 9.56521 69.041 10.2063 68.4164 10.9856L67.517 12.1923C67.517 12.7202 67.9042 12.9842 68.6787 12.9842C69.1285 12.9842 69.6282 12.8208 70.1778 12.494L71.1522 11.8906C71.2022 11.8655 71.3271 11.8529 71.527 11.8529C71.7269 11.8529 71.9392 11.9786 72.1641 12.23C72.3889 12.4814 72.4639 12.7077 72.3889 12.9088L69.803 16.1895C68.204 18.251 67.4045 19.885 67.4045 21.0917C67.4045 22.2733 67.9542 22.8641 69.0535 22.8641C70.2028 22.8641 71.6144 22.2482 73.2884 21.0163C74.2878 20.2873 75.1997 19.4702 76.0242 18.5652C76.7987 17.6602 77.2234 17.2077 77.2984 17.2077C77.4733 17.2077 77.5607 17.3082 77.5607 17.5093C77.5607 17.6853 77.4483 17.899 77.2234 18.1504L76.0242 19.5079C75.3496 20.2119 74.6001 20.8906 73.7756 21.5443C71.8018 23.0275 70.1778 23.7691 68.9036 23.7691Z" fill="#18181B"/>
<path d="M85.7889 15.5862C85.7889 16.466 84.9519 17.9367 83.278 19.9982C81.3042 22.4367 79.6178 23.656 78.2186 23.656H77.619C76.9694 23.656 76.4572 23.3166 76.0825 22.6378C75.7826 22.1602 75.6327 21.6322 75.6327 21.054C75.6327 19.5457 76.7196 17.4339 78.8932 14.7188C81.0918 11.9786 82.8657 10.6085 84.2149 10.6085C85.4891 10.6085 86.1262 11.2873 86.1262 12.6448C86.1262 12.9968 86.0638 13.4493 85.9388 14.0024C85.9638 14.0778 86.2012 14.1155 86.6509 14.1155C87.1006 14.1155 87.7877 13.8767 88.7121 13.399C88.6871 13.8264 87.7002 14.4423 85.7514 15.2468C85.7764 15.3473 85.7889 15.4605 85.7889 15.5862ZM83.3529 13.6253C82.5035 13.6253 81.2917 14.6309 79.7177 16.642C78.1687 18.6532 77.3941 20.1364 77.3941 21.0917C77.3941 22.0471 77.6939 22.5247 78.2936 22.5247C79.3679 22.5247 80.7296 21.5443 82.3785 19.5834C84.0275 17.6225 84.852 16.2146 84.852 15.3599C84.4523 15.1336 83.9526 14.5554 83.3529 13.6253Z" fill="#18181B"/>
<path d="M104.462 23.1281C102.763 23.1281 101.913 22.3362 101.913 20.7524C101.913 19.8473 102.313 18.6155 103.113 17.0568C103.912 15.473 104.749 14.1406 105.623 13.0596C104.074 13.8138 102.288 15.1839 100.264 17.17C98.2406 19.1309 96.8289 21.1923 96.0294 23.3543C95.9045 23.5554 95.6921 23.656 95.3923 23.656C94.7927 23.656 94.4929 23.3166 94.4929 22.6378C94.7427 21.2552 95.3049 19.6714 96.1793 17.8864C96.4542 17.3082 97.2662 15.6239 98.6153 12.8334C96.6665 14.1155 95.0051 15.4982 93.6309 16.9814C92.2818 18.4395 91.02 19.9102 89.8458 21.3934C88.6965 22.8767 88.0469 23.6183 87.897 23.6183C87.5722 23.6183 87.2849 23.4674 87.035 23.1658C86.8102 22.8641 86.6977 22.5624 86.6977 22.2607C86.6977 21.8082 87.3473 20.149 88.6465 17.2831L86.3979 19.6588C85.8483 20.2119 85.511 20.4884 85.386 20.4884C85.2361 20.4884 85.1612 20.413 85.1612 20.2621C85.1612 20.0862 85.2611 19.8976 85.461 19.6965C86.3854 18.7663 87.2099 17.8362 87.9345 16.906C88.659 15.9758 89.8583 14.3166 91.5322 11.9283C91.8071 11.5512 92.1943 11.3627 92.694 11.3627C93.1937 11.3627 93.4435 11.6015 93.4435 12.0792C93.4435 12.2552 92.7815 13.487 91.4573 15.7747C90.1331 18.0373 89.396 19.4577 89.2461 20.0359C90.2705 18.9046 91.8071 17.3836 93.8558 15.473C96.9289 12.6071 98.9526 11.1741 99.927 11.1741C100.227 11.1741 100.502 11.2621 100.752 11.4381C101.001 11.6141 101.126 11.8152 101.126 12.0415C101.126 12.2426 100.639 13.1853 99.6647 14.8697C98.7153 16.6043 98.1906 17.635 98.0907 17.9619C100.864 15.6239 102.251 14.4423 102.251 14.4172C104.599 12.582 106.286 11.6644 107.31 11.6644C107.61 11.6644 107.885 11.7649 108.134 11.966C108.409 12.142 108.547 12.3557 108.547 12.6071C108.547 12.6574 107.735 13.7258 106.111 15.8124C104.487 17.8739 103.575 19.5708 103.375 20.9032C103.325 21.3557 103.412 21.6951 103.637 21.9214C103.862 22.1476 104.262 22.2607 104.836 22.2607C105.436 22.2607 106.298 21.8585 107.422 21.054C108.572 20.2244 109.733 19.1183 110.908 17.7356C111.357 17.2328 111.657 16.9814 111.807 16.9814C111.982 16.9814 112.069 17.0443 112.069 17.17C112.069 17.3459 111.957 17.5471 111.732 17.7733C110.508 19.2565 109.184 20.5261 107.76 21.582C106.361 22.6127 105.261 23.1281 104.462 23.1281Z" fill="#18181B"/>
<path d="M122.67 12.3054L123.195 12.1923C123.47 12.1923 123.732 12.3054 123.982 12.5317C124.232 12.7579 124.357 12.9339 124.357 13.0596C124.357 13.1853 123.582 14.4046 122.033 16.7174C120.484 19.0052 119.709 20.6015 119.709 21.5065C119.709 21.582 119.722 21.6574 119.747 21.7328C119.872 22.311 120.147 22.6001 120.571 22.6001C121.871 22.6001 124.244 20.4381 127.692 16.1141C127.767 16.0135 127.854 15.9633 127.954 15.9633C128.054 15.9633 128.104 16.0638 128.104 16.2649C128.104 16.4409 127.992 16.6797 127.767 16.9814C124.569 21.2803 122.133 23.4297 120.459 23.4297C120.234 23.4297 120.022 23.392 119.822 23.3166C118.723 22.8892 118.173 22.0596 118.173 20.8278C118.173 20.4004 118.223 19.973 118.323 19.5457L115.999 21.8082C114.525 23.1155 113.451 23.7691 112.776 23.7691C112.127 23.7691 111.502 23.5554 110.902 23.1281C110.228 22.6253 109.891 21.9591 109.891 21.1295C109.891 19.2943 111.165 17.1071 113.713 14.568C116.262 12.0038 118.598 10.7216 120.721 10.7216C121.546 10.7216 122.095 11.0107 122.37 11.589C122.445 11.7901 122.508 11.966 122.558 12.1169C122.608 12.2426 122.645 12.3054 122.67 12.3054ZM111.465 21.582C111.465 22.487 111.777 22.9395 112.402 22.9395C113.851 22.9395 115.824 21.3431 118.323 18.1504L122.295 12.6448C122.095 12.2929 121.771 12.1169 121.321 12.1169C119.797 12.1169 117.773 13.311 115.25 15.6993C112.726 18.0624 111.465 20.0233 111.465 21.582Z" fill="#18181B"/>
</svg>
