<svg width="159" height="34" viewBox="0 0 159 34" fill="none" xmlns="http://www.w3.org/2000/svg">
<path d="M18.8391 5.85698L20.0946 4.60145C22.5601 2.13593 26.574 2.07491 29.0537 4.52622C29.9933 5.45714 30.6178 6.659 30.8393 7.96299C31.0608 9.26699 30.8682 10.6076 30.2886 11.7965C30.0106 12.3645 29.917 13.0051 30.0206 13.6288C30.1244 14.2526 30.4203 14.8284 30.8672 15.2757C31.6889 14.4521 32.3402 13.4747 32.784 12.3993C33.2278 11.3239 33.4554 10.1716 33.4538 9.00817C33.452 7.8448 33.2213 6.69313 32.7745 5.61898C32.3276 4.54482 31.6734 3.56924 30.8494 2.74795C27.382 -0.699929 21.7537 -0.631317 18.296 2.82625L6.32872 14.7932L5.3449 13.8094C2.83756 11.302 2.82158 7.20355 5.37315 4.74078C6.31763 3.83198 7.52091 3.23872 8.81692 3.04289C10.1129 2.84706 11.4378 3.05832 12.6086 3.6475C13.143 3.92135 13.7503 4.01932 14.3437 3.92741C14.9371 3.8355 15.4863 3.55842 15.9128 3.13573L15.9433 3.10538C15.9528 3.09596 15.9603 3.08474 15.9655 3.07237C15.9706 3.06002 15.9733 3.04676 15.9733 3.03338C15.9733 3.02 15.9706 3.00674 15.9655 2.99439C15.9603 2.98204 15.9528 2.97082 15.9433 2.96138C14.2962 1.35563 12.0889 0.453687 9.78863 0.446394C7.48833 0.439104 5.2754 1.32704 3.61813 2.92231C0.048189 6.36858 0.0609459 12.0994 3.5697 15.6082L15.5334 27.5719L14.2626 28.8427C11.797 31.3082 7.78297 31.3693 5.30341 28.918C4.36381 27.9871 3.7394 26.7852 3.51789 25.4812C3.29639 24.1773 3.4889 22.8367 4.06839 21.6476C4.3464 21.0797 4.4401 20.4391 4.33641 19.8155C4.2327 19.1916 3.93676 18.6158 3.48994 18.1684C2.66826 18.9921 2.01691 19.9695 1.57309 21.0448C1.12926 22.1203 0.90168 23.2725 0.903329 24.436C0.904978 25.5994 1.13583 26.7511 1.5827 27.8252C2.02957 28.8994 2.68369 29.875 3.5077 30.6962C6.97496 34.1443 12.6034 34.0758 16.0612 30.6181L28.0439 18.6352L29.0315 19.6227C31.497 22.0882 31.558 26.1021 29.1067 28.5817C28.1758 29.5214 26.9739 30.1457 25.6699 30.3674C24.366 30.5889 23.0254 30.3963 21.8364 29.8167C21.2683 29.5385 20.6273 29.4447 20.0034 29.5487C19.3794 29.6525 18.8034 29.9488 18.356 30.3959C19.1797 31.2177 20.1571 31.8691 21.2324 32.3129C22.3079 32.7567 23.4601 32.9843 24.6236 32.9827C25.787 32.9809 26.9387 32.7501 28.0128 32.3032C29.087 31.8563 30.0626 31.2022 30.8838 30.3782C34.3319 26.9109 34.2633 21.2825 30.8057 17.8249L18.8391 5.85698ZM17.3199 25.7846L8.1157 16.5803L17.0519 7.64429L26.2561 16.8485L17.3199 25.7846Z" fill="#0EA5E9"/>
<path d="M48.7329 27.3963C46.9013 27.3963 45.5011 26.8589 44.5324 25.7842C43.5712 24.7095 43.0338 23.2412 42.9203 21.3794L45.8266 20.6528C45.9704 23.5591 46.9391 25.0122 48.7329 25.0122C50.186 25.0122 50.9126 24.2857 50.9126 22.8325C50.9126 22.4011 50.852 22.0038 50.731 21.6405C50.6174 21.2696 50.4396 20.9328 50.1974 20.6301C49.9552 20.3198 49.7357 20.0738 49.5389 19.8922C49.3421 19.703 49.0735 19.4721 48.7329 19.1997L45.1 16.2934C44.434 15.7711 43.9004 15.1089 43.4993 14.3066C43.1057 13.4968 42.9089 12.5772 42.9089 11.5479C42.9089 10.0494 43.3744 8.85733 44.3053 7.97182C45.2362 7.08631 46.4699 6.64355 48.0063 6.64355C49.6562 6.64355 50.9656 7.04847 51.9343 7.85829C52.9107 8.66055 53.5124 9.79961 53.7394 11.2755C53.7621 11.4344 53.7886 11.6539 53.8189 11.9339L50.9126 12.6605C50.905 12.5318 50.8861 12.3388 50.8558 12.0815C50.7272 11.1581 50.4358 10.4202 49.9817 9.86772C49.5351 9.30766 48.8767 9.02762 48.0063 9.02762C47.31 9.02762 46.7726 9.2244 46.3942 9.61796C46.0158 10.004 45.8266 10.5451 45.8266 11.2414C45.8266 12.3842 46.311 13.3417 47.2797 14.1136L50.9126 17.0199C52.8501 18.5866 53.8189 20.4598 53.8189 22.6395C53.8189 24.1305 53.3572 25.2961 52.4339 26.1362C51.5181 26.9763 50.2844 27.3963 48.7329 27.3963Z" fill="#18181B"/>
<path d="M59.8926 25.0122C60.657 25.0122 61.3836 24.8155 62.0723 24.4219V15.4306C62.042 15.4154 61.9664 15.37 61.8453 15.2943C61.7242 15.2186 61.6371 15.1694 61.5841 15.1467C61.5387 15.1165 61.4593 15.0711 61.3457 15.0105C61.2322 14.95 61.1376 14.9083 61.0619 14.8856C60.9938 14.8553 60.903 14.8251 60.7895 14.7948C60.6835 14.757 60.5775 14.7305 60.4716 14.7153C60.3732 14.7002 60.2672 14.6926 60.1537 14.6926C59.9115 14.6926 59.6958 14.7494 59.5066 14.8629C59.325 14.9689 59.1736 15.0975 59.0525 15.2489C58.9314 15.4003 58.8254 15.616 58.7346 15.896C58.6514 16.176 58.5908 16.4258 58.553 16.6453C58.5151 16.8572 58.4849 17.1448 58.4621 17.5081C58.4394 17.8638 58.4243 18.1401 58.4167 18.3368C58.4167 18.5336 58.4167 18.8099 58.4167 19.1656C58.4167 19.1807 58.4167 19.1921 58.4167 19.1997C58.4167 19.3283 58.4167 19.5364 58.4167 19.8241C58.4167 20.1117 58.4167 20.3879 58.4167 20.6528C58.4167 20.9177 58.4167 21.1675 58.4167 21.4021C58.4243 21.9092 58.447 22.3557 58.4849 22.7417C58.5303 23.1201 58.6022 23.4948 58.7006 23.8656C58.8065 24.2289 58.9579 24.5127 59.1547 24.7171C59.359 24.9139 59.605 25.0122 59.8926 25.0122ZM62.0723 31.5514V25.8864C61.6409 26.3329 61.1944 26.6962 60.7327 26.9763C60.2786 27.2563 59.7564 27.3963 59.166 27.3963C58.606 27.3963 58.1064 27.2563 57.6675 26.9763C57.2361 26.6887 56.8879 26.3216 56.623 25.875C56.3657 25.4285 56.15 24.9025 55.9759 24.297C55.8094 23.684 55.6921 23.0823 55.624 22.4919C55.5634 21.9016 55.5331 21.2886 55.5331 20.6528V18.439C55.5331 17.7806 55.5634 17.1789 55.624 16.6339C55.6845 16.089 55.7943 15.5516 55.9532 15.0219C56.1121 14.4921 56.3203 14.0455 56.5776 13.6822C56.8425 13.3114 57.1906 13.0162 57.622 12.7967C58.0535 12.5697 58.553 12.4561 59.1206 12.4561C59.4461 12.4561 59.7488 12.5016 60.0288 12.5924C60.3164 12.6756 60.5889 12.8119 60.8462 13.0011C61.1111 13.1903 61.3155 13.3568 61.4593 13.5006C61.6106 13.6368 61.815 13.8412 62.0723 14.1136V12.6605H64.9786V31.5514H62.0723Z" fill="#18181B"/>
<path d="M69.3835 27.3963C68.7477 27.3963 68.2368 27.173 67.8508 26.7265C67.4648 26.2724 67.2719 25.7123 67.2719 25.0463V12.6605H70.1781V24.1608C70.1781 24.4635 70.269 24.7095 70.4506 24.8987C70.6398 25.0879 70.882 25.1825 71.1772 25.1825C71.3361 25.1825 71.4913 25.1636 71.6426 25.1258C71.794 25.0879 71.9416 25.0236 72.0854 24.9328C72.2368 24.8344 72.3541 24.7587 72.4373 24.7057C72.5206 24.6452 72.6379 24.5468 72.7893 24.4105C72.9482 24.2743 73.0466 24.1911 73.0844 24.1608V12.6605H75.9907V27.192H73.0844V25.6253C72.7968 25.875 72.5849 26.0567 72.4487 26.1702C72.32 26.2837 72.1195 26.4389 71.847 26.6357C71.5745 26.8249 71.3323 26.9649 71.1204 27.0557C70.9161 27.139 70.6587 27.2147 70.3484 27.2828C70.0381 27.3585 69.7165 27.3963 69.3835 27.3963Z" fill="#18181B"/>
<path d="M82.5072 25.0122C82.7115 25.0122 82.9083 24.9517 83.0975 24.8306C83.2943 24.7095 83.4419 24.5922 83.5403 24.4787C83.6387 24.3651 83.7598 24.2138 83.9036 24.0246C83.9263 23.9867 83.9452 23.9602 83.9603 23.9451V19.9262C83.8392 20.0095 83.6387 20.1381 83.3586 20.3122C83.0786 20.4863 82.8553 20.6301 82.6888 20.7436C82.5223 20.8496 82.3218 21.0009 82.0871 21.1977C81.8525 21.3869 81.6709 21.5724 81.5422 21.754C81.4135 21.9281 81.3 22.1438 81.2016 22.4011C81.1032 22.6584 81.054 22.9271 81.054 23.2072C81.054 24.4105 81.5384 25.0122 82.5072 25.0122ZM81.054 27.3963C80.2442 27.3963 79.5555 27.0482 78.9879 26.3519C78.4278 25.648 78.1478 24.8571 78.1478 23.9791C78.1478 23.2753 78.2651 22.6357 78.4997 22.0605C78.7419 21.4853 78.9954 21.0274 79.2603 20.6869C79.5252 20.3387 79.968 19.983 80.5886 19.6197C81.2092 19.2488 81.6784 18.9953 81.9963 18.8591C82.3142 18.7228 82.8667 18.4996 83.6538 18.1893C83.79 18.1363 83.8922 18.0947 83.9603 18.0644V17.0199C83.9603 16.2858 83.8582 15.7182 83.6538 15.317C83.4495 14.9083 83.0673 14.704 82.5072 14.704C82.0077 14.704 81.6482 14.8781 81.4287 15.2262C81.2168 15.5668 81.0957 16.0398 81.0654 16.6453C81.0578 16.7285 81.054 16.8534 81.054 17.0199H78.1478C78.1629 15.6273 78.5527 14.5186 79.3171 13.6936C80.0815 12.8686 81.1449 12.4561 82.5072 12.4561C83.8619 12.4561 84.9253 12.8762 85.6973 13.7163C86.4769 14.5488 86.8666 15.65 86.8666 17.0199V23.5591C86.8666 25.0728 86.9915 26.2837 87.2413 27.192H84.3463L83.9603 25.0122C83.809 25.315 83.6841 25.5496 83.5857 25.7161C83.4949 25.8826 83.3586 26.0907 83.177 26.3405C82.9954 26.5827 82.8137 26.7719 82.6321 26.9081C82.4504 27.0368 82.2234 27.1503 81.9509 27.2487C81.6784 27.3471 81.3795 27.3963 81.054 27.3963Z" fill="#18181B"/>
<path d="M89.3756 27.192V12.6605H92.2819V14.6018C92.577 14.0266 93.0047 13.5271 93.5647 13.1032C94.1324 12.6718 94.7606 12.4561 95.4493 12.4561C95.472 12.4561 95.6271 12.4713 95.9147 12.5016V15.7144C95.3774 15.5025 94.84 15.3965 94.3027 15.3965C93.6972 15.3965 93.209 15.5781 92.8382 15.9414C92.4673 16.3047 92.2819 16.7853 92.2819 17.3832V27.192H89.3756Z" fill="#18181B"/>
<path d="M101.251 27.3963C100.547 27.3963 99.9336 27.2752 99.4114 27.033C98.8967 26.7908 98.4842 26.4767 98.1739 26.0907C97.8712 25.6972 97.6252 25.1977 97.436 24.5922C97.2468 23.9791 97.1143 23.3699 97.0387 22.7644C96.9705 22.1514 96.9289 21.4399 96.9138 20.6301C96.8911 19.9943 96.8911 19.3586 96.9138 18.7228C96.9365 17.966 96.9857 17.2962 97.0614 16.7134C97.1446 16.1231 97.2846 15.5516 97.4814 14.9991C97.6782 14.4467 97.9317 13.9925 98.242 13.6368C98.5599 13.2811 98.9724 12.9973 99.4795 12.7854C99.9941 12.5659 100.592 12.4561 101.273 12.4561C101.894 12.4561 102.439 12.5394 102.908 12.7059C103.385 12.8648 103.778 13.1108 104.089 13.4438C104.407 13.7693 104.668 14.1326 104.872 14.5337C105.084 14.9348 105.243 15.423 105.349 15.9982C105.455 16.5658 105.527 17.1259 105.565 17.6784C105.61 18.2309 105.633 18.8666 105.633 19.5856V19.9262H99.8201V20.6528C99.8201 20.7512 99.8201 20.9063 99.8201 21.1183C99.8049 21.3983 99.8012 21.6897 99.8087 21.9924C99.8239 22.2876 99.839 22.579 99.8541 22.8666C99.8693 23.1542 99.9109 23.4304 99.979 23.6953C100.047 23.9527 100.13 24.1797 100.229 24.3765C100.327 24.5733 100.463 24.7284 100.637 24.8419C100.819 24.9555 101.031 25.0122 101.273 25.0122C101.576 25.0122 101.826 24.9555 102.022 24.8419C102.219 24.7209 102.363 24.543 102.454 24.3084C102.552 24.0737 102.62 23.8391 102.658 23.6045C102.696 23.3699 102.719 23.0747 102.726 22.719V22.1059H105.61V22.6849C105.542 24.2365 105.16 25.4096 104.463 26.2043C103.767 26.999 102.696 27.3963 101.251 27.3963ZM99.8201 18.4731H102.704V17.5989C102.696 17.2129 102.673 16.8761 102.636 16.5885C102.598 16.3009 102.53 16.0133 102.431 15.7257C102.34 15.4381 102.197 15.2186 102 15.0673C101.803 14.9159 101.561 14.8402 101.273 14.8402C100.978 14.8402 100.728 14.9197 100.524 15.0786C100.327 15.2376 100.18 15.4684 100.081 15.7711C99.9904 16.0663 99.926 16.3577 99.8882 16.6453C99.8503 16.9329 99.8276 17.2773 99.8201 17.6784V18.4731Z" fill="#18181B"/>
<path d="M113.171 27.3963C111.339 27.3963 109.939 26.8589 108.97 25.7842C108.009 24.7095 107.472 23.2412 107.358 21.3794L110.265 20.6528C110.408 23.5591 111.377 25.0122 113.171 25.0122C114.624 25.0122 115.351 24.2857 115.351 22.8325C115.351 22.4011 115.29 22.0038 115.169 21.6405C115.055 21.2696 114.878 20.9328 114.635 20.6301C114.393 20.3198 114.174 20.0738 113.977 19.8922C113.78 19.703 113.511 19.4721 113.171 19.1997L109.538 16.2934C108.872 15.7711 108.338 15.1089 107.937 14.3066C107.544 13.4968 107.347 12.5772 107.347 11.5479C107.347 10.0494 107.812 8.85733 108.743 7.97182C109.674 7.08631 110.908 6.64355 112.444 6.64355C114.094 6.64355 115.404 7.04847 116.372 7.85829C117.349 8.66055 117.95 9.79961 118.177 11.2755C118.2 11.4344 118.227 11.6539 118.257 11.9339L115.351 12.6605C115.343 12.5318 115.324 12.3388 115.294 12.0815C115.165 11.1581 114.874 10.4202 114.42 9.86772C113.973 9.30766 113.315 9.02762 112.444 9.02762C111.748 9.02762 111.211 9.2244 110.832 9.61796C110.454 10.004 110.265 10.5451 110.265 11.2414C110.265 12.3842 110.749 13.3417 111.718 14.1136L115.351 17.0199C117.288 18.5866 118.257 20.4598 118.257 22.6395C118.257 24.1305 117.795 25.2961 116.872 26.1362C115.956 26.9763 114.722 27.3963 113.171 27.3963Z" fill="#18181B"/>
<path d="M124.285 27.3963C123.142 27.3963 122.31 27.1049 121.788 26.5222C121.273 25.9394 121.008 25.0577 120.993 23.877V14.8402H119.54V12.6605H120.993V7.57448H123.899V12.6605H126.079V14.8402H123.899V23.3207C123.899 23.9035 123.979 24.3311 124.138 24.6035C124.297 24.876 124.618 25.0122 125.103 25.0122C125.314 25.0122 125.64 24.9744 126.079 24.8987V27.2601C125.352 27.3509 124.754 27.3963 124.285 27.3963Z" fill="#18181B"/>
<path d="M135.547 26.034C134.873 26.9422 133.757 27.3963 132.198 27.3963C130.639 27.3963 129.523 26.9422 128.849 26.034C128.175 25.1258 127.839 23.8164 127.839 22.1059V17.7465C127.839 16.036 128.175 14.7267 128.849 13.8185C129.523 12.9103 130.639 12.4561 132.198 12.4561C133.757 12.4561 134.873 12.9103 135.547 13.8185C136.221 14.7267 136.557 16.036 136.557 17.7465V22.1059C136.557 23.8164 136.221 25.1258 135.547 26.034ZM131.653 24.9214C131.812 24.982 131.994 25.0122 132.198 25.0122C132.402 25.0122 132.58 24.982 132.732 24.9214C132.891 24.8609 133.019 24.789 133.118 24.7057C133.224 24.6149 133.311 24.4862 133.379 24.3197C133.447 24.1457 133.5 23.9943 133.538 23.8656C133.575 23.737 133.602 23.5515 133.617 23.3093C133.632 23.0671 133.64 22.8779 133.64 22.7417C133.647 22.5979 133.651 22.386 133.651 22.1059V17.7465C133.651 17.4665 133.647 17.2583 133.64 17.1221C133.64 16.9783 133.632 16.7853 133.617 16.5431C133.602 16.3009 133.575 16.1155 133.538 15.9868C133.5 15.8582 133.447 15.7106 133.379 15.5441C133.311 15.37 133.224 15.2413 133.118 15.1581C133.019 15.0673 132.891 14.9916 132.732 14.931C132.58 14.8705 132.402 14.8402 132.198 14.8402C131.994 14.8402 131.812 14.8705 131.653 14.931C131.502 14.9916 131.373 15.0673 131.267 15.1581C131.169 15.2413 131.085 15.37 131.017 15.5441C130.949 15.7106 130.896 15.8582 130.858 15.9868C130.821 16.1155 130.794 16.3009 130.779 16.5431C130.764 16.7853 130.752 16.9783 130.745 17.1221C130.745 17.2583 130.745 17.4665 130.745 17.7465V22.1059C130.745 22.386 130.745 22.5979 130.745 22.7417C130.752 22.8779 130.764 23.0671 130.779 23.3093C130.794 23.5515 130.821 23.737 130.858 23.8656C130.896 23.9943 130.949 24.1457 131.017 24.3197C131.085 24.4862 131.169 24.6149 131.267 24.7057C131.373 24.789 131.502 24.8609 131.653 24.9214Z" fill="#18181B"/>
<path d="M138.942 27.192V12.6605H141.848V14.2272C142.279 13.8336 142.631 13.5347 142.904 13.3303C143.176 13.1184 143.551 12.9216 144.028 12.74C144.512 12.5507 145.027 12.4561 145.571 12.4561C146.192 12.4561 146.695 12.6832 147.081 13.1373C147.467 13.5914 147.66 14.1477 147.66 14.8062V27.192H144.754V16.2934C144.754 15.7863 144.682 15.4192 144.538 15.1921C144.395 14.9575 144.103 14.8402 143.664 14.8402C143.414 14.8402 143.165 14.8932 142.915 14.9991C142.673 15.0975 142.491 15.1921 142.37 15.283C142.249 15.3662 142.075 15.5025 141.848 15.6917V27.192H138.942Z" fill="#18181B"/>
<path d="M154.313 27.3963C153.609 27.3963 152.996 27.2752 152.474 27.033C151.959 26.7908 151.547 26.4767 151.237 26.0907C150.934 25.6972 150.688 25.1977 150.499 24.5922C150.309 23.9791 150.177 23.3699 150.101 22.7644C150.033 22.1514 149.991 21.4399 149.976 20.6301C149.954 19.9943 149.954 19.3586 149.976 18.7228C149.999 17.966 150.048 17.2962 150.124 16.7134C150.207 16.1231 150.347 15.5516 150.544 14.9991C150.741 14.4467 150.994 13.9925 151.305 13.6368C151.622 13.2811 152.035 12.9973 152.542 12.7854C153.057 12.5659 153.655 12.4561 154.336 12.4561C154.956 12.4561 155.501 12.5394 155.971 12.7059C156.447 12.8648 156.841 13.1108 157.151 13.4438C157.469 13.7693 157.73 14.1326 157.935 14.5337C158.147 14.9348 158.305 15.423 158.411 15.9982C158.517 16.5658 158.589 17.1259 158.627 17.6784C158.673 18.2309 158.695 18.8666 158.695 19.5856V19.9262H152.883V20.6528C152.883 20.7512 152.883 20.9063 152.883 21.1183C152.868 21.3983 152.864 21.6897 152.871 21.9924C152.886 22.2876 152.902 22.579 152.917 22.8666C152.932 23.1542 152.973 23.4304 153.042 23.6953C153.11 23.9527 153.193 24.1797 153.291 24.3765C153.39 24.5733 153.526 24.7284 153.7 24.8419C153.882 24.9555 154.094 25.0122 154.336 25.0122C154.639 25.0122 154.888 24.9555 155.085 24.8419C155.282 24.7209 155.426 24.543 155.516 24.3084C155.615 24.0737 155.683 23.8391 155.721 23.6045C155.759 23.3699 155.781 23.0747 155.789 22.719V22.1059H158.673V22.6849C158.604 24.2365 158.222 25.4096 157.526 26.2043C156.83 26.999 155.759 27.3963 154.313 27.3963ZM152.883 18.4731H155.766V17.5989C155.759 17.2129 155.736 16.8761 155.698 16.5885C155.66 16.3009 155.592 16.0133 155.494 15.7257C155.403 15.4381 155.259 15.2186 155.062 15.0673C154.866 14.9159 154.623 14.8402 154.336 14.8402C154.041 14.8402 153.791 14.9197 153.587 15.0786C153.39 15.2376 153.242 15.4684 153.144 15.7711C153.053 16.0663 152.989 16.3577 152.951 16.6453C152.913 16.9329 152.89 17.2773 152.883 17.6784V18.4731Z" fill="#18181B"/>
</svg>
