<svg width="153" height="31" viewBox="0 0 153 31" fill="none" xmlns="http://www.w3.org/2000/svg">
<path d="M6.02522 10.8281L9.76767 8.66975L7.67869 5.05351H27.3249L17.505 22.068L15.416 18.4455L11.6736 20.6102L17.505 30.7079L34.8098 0.730469H0.193848L6.02522 10.8281Z" fill="#FBBF24"/>
<path d="M50.3363 25.2145L57.8083 7.48438H54.2369L48.9686 20.3514L43.6749 7.48438H40.1035L47.5755 25.2145H50.3363Z" fill="#3F3F46"/>
<path d="M62.033 7.48438V25.2145H75.2293V22.0737H65.4271V17.8185H73.7096V14.6777H65.4271V10.6251H75.1027V7.48438H62.033Z" fill="#3F3F46"/>
<path d="M80.0996 7.48438V25.2145H83.4936V18.9583H87.6222L91.3455 25.2145H95.1195L91.0669 18.3757C93.1185 17.4639 94.4356 15.5136 94.4356 13.2087C94.4356 11.5876 93.8531 10.2199 92.6626 9.13074C91.4975 8.04161 90.0537 7.48438 88.3061 7.48438H80.0996ZM88.3061 10.6251C89.8005 10.6251 90.8896 11.7143 90.8896 13.2087C90.8896 14.7031 89.8005 15.8175 88.3061 15.8175H83.4936V10.6251H88.3061Z" fill="#3F3F46"/>
<path d="M104.195 10.6251V25.2145H107.615V10.6251H113.491V7.48438H98.319V10.6251H104.195Z" fill="#3F3F46"/>
<path d="M118.112 7.48438V25.2145H131.309V22.0737H121.506V17.8185H129.789V14.6777H121.506V10.6251H131.182V7.48438H118.112Z" fill="#3F3F46"/>
<path d="M141.523 16.1721L134.938 25.2145H139.016L143.55 18.9583L148.083 25.2145H152.136L145.576 16.1721L151.883 7.48438H147.83L143.55 13.386L139.269 7.48438H135.191L141.523 16.1721Z" fill="#3F3F46"/>
</svg>
