<svg width="159" height="33" viewBox="0 0 159 33" fill="none" xmlns="http://www.w3.org/2000/svg">
<path d="M4.95627 7.95142L6.78836 8.86746C7.1256 9.01476 7.49256 9.08113 7.85999 9.06125C8.22741 9.04137 8.58508 8.93579 8.90441 8.75295L10.6358 7.62622C10.9337 7.40999 11.1761 7.12625 11.3433 6.79826C11.5105 6.47027 11.5977 6.10734 11.5976 5.73918L11.4877 3.67351C11.4476 3.30833 11.3223 2.95762 11.1218 2.64974C10.9213 2.34186 10.6513 2.08537 10.3334 1.90097L8.50135 0.962026C8.1648 0.812986 7.79783 0.74529 7.43023 0.76439C7.06262 0.783489 6.70463 0.888834 6.3853 1.07195L4.65403 2.19868C4.35663 2.41546 4.11453 2.6993 3.94744 3.02719C3.78031 3.35504 3.69283 3.71775 3.69214 4.08573L3.80206 6.1514C3.83765 6.52157 3.9609 6.87791 4.16161 7.19092C4.36231 7.50398 4.63474 7.76468 4.95627 7.95142Z" fill="#34D399"/>
<path d="M16.0076 10.6268L14.1755 9.68786C13.8391 9.54061 13.4728 9.47429 13.1062 9.49417C12.7395 9.51405 12.3826 9.61962 12.064 9.80237L10.3144 10.9291C10.0181 11.1469 9.77676 11.431 9.60976 11.7586C9.44277 12.0862 9.35465 12.4484 9.35254 12.8161L9.46251 14.8818C9.50259 15.247 9.6279 15.5978 9.82838 15.9056C10.0289 16.2135 10.2989 16.47 10.6167 16.6544L12.4488 17.5704C12.7846 17.7194 13.1508 17.7871 13.5177 17.768C13.8846 17.7489 14.2417 17.6435 14.5602 17.4605L16.2961 16.3337C16.5926 16.115 16.8338 15.8301 17.0008 15.5017C17.1678 15.1733 17.2559 14.8105 17.258 14.4421L17.148 12.381C17.106 12.0205 16.9812 11.6746 16.7834 11.3703C16.5856 11.066 16.32 10.8115 16.0076 10.6268Z" fill="#34D399"/>
<path d="M21.6603 19.3381L19.8283 18.422C19.4917 18.2729 19.1247 18.2053 18.7571 18.2244C18.3895 18.2435 18.0315 18.3488 17.7122 18.532L15.9809 19.6587C15.684 19.8759 15.4423 20.1599 15.2753 20.4877C15.1082 20.8154 15.0205 21.1779 15.019 21.5457L15.129 23.6114C15.1728 23.9707 15.299 24.3151 15.4976 24.6177C15.6961 24.9204 15.9619 25.1732 16.2741 25.3565L18.1061 26.2725C18.4433 26.4198 18.8103 26.4861 19.1777 26.4662C19.5452 26.4464 19.9028 26.3408 20.2222 26.158L21.9581 25.0313C22.2546 24.814 22.4958 24.5299 22.6621 24.2021C22.8284 23.8742 22.9152 23.5118 22.9154 23.1442L22.8191 21.1152C22.7796 20.7486 22.6541 20.3966 22.4527 20.0878C22.2513 19.779 21.9798 19.5221 21.6603 19.3381Z" fill="#34D399"/>
<path d="M8.1621 14.2076L8.07508 12.5999C8.07719 12.2322 8.16526 11.87 8.3323 11.5424C8.4993 11.2147 8.74058 10.9307 9.03692 10.7129L12.4125 8.51896C12.731 8.33621 13.088 8.23064 13.4547 8.21076C13.8214 8.19088 14.1876 8.25725 14.524 8.40446L15.9622 9.13729C16.2988 9.28633 16.6657 9.35407 17.0333 9.33497C17.401 9.31587 17.7589 9.21048 18.0782 9.02737L19.8096 7.89605C20.1067 7.67904 20.3486 7.39516 20.5156 7.06731C20.6827 6.73951 20.7704 6.37698 20.7714 6.00901L20.6615 3.94792C20.6221 3.58191 20.4971 3.23029 20.2965 2.92159C20.096 2.61283 19.8256 2.35565 19.5073 2.1708L17.6752 1.23186C17.338 1.0846 16.971 1.01823 16.6036 1.03811C16.2361 1.05799 15.8785 1.16356 15.5591 1.34636L13.7912 2.45477C13.4946 2.67206 13.2534 2.95612 13.0871 3.28397C12.9208 3.61182 12.8341 3.97421 12.8339 4.34181L12.9164 5.94947C12.9162 6.31712 12.8294 6.67951 12.6631 7.00736C12.4968 7.33521 12.2556 7.61927 11.9591 7.83651L8.58348 10.0304C8.26415 10.2135 7.90621 10.3189 7.5386 10.338C7.17095 10.3571 6.80403 10.2894 6.46743 10.1404L5.03382 9.4121C4.69723 9.26306 4.33031 9.19537 3.96265 9.21447C3.59505 9.23357 3.2371 9.33891 2.91777 9.52203L1.18645 10.6488C0.889059 10.8655 0.646996 11.1494 0.479864 11.4773C0.312733 11.8052 0.225296 12.1678 0.224609 12.5358L0.334533 14.6015C0.373557 14.9676 0.498459 15.3194 0.69898 15.6282C0.899547 15.937 1.1701 16.1941 1.48875 16.3786L3.32083 17.2946C3.65802 17.4419 4.02499 17.5083 4.39241 17.4884C4.75984 17.4685 5.11755 17.363 5.43688 17.1801L7.1682 16.0534C7.46573 15.8439 7.71036 15.5681 7.88289 15.2477C8.05539 14.9274 8.15097 14.5713 8.1621 14.2076Z" fill="#34D399"/>
<path d="M26.2953 12.6599C26.2545 12.2942 26.1289 11.9432 25.9285 11.6347C25.7281 11.3262 25.4585 11.0687 25.1411 10.8828L23.309 9.96671C22.9717 9.81978 22.6047 9.75359 22.2374 9.77347C21.87 9.79335 21.5123 9.89874 21.1929 10.0812L19.4616 11.2079C19.1647 11.4252 18.9231 11.7092 18.756 12.0369C18.5889 12.3647 18.5011 12.7271 18.4998 13.095L18.5868 14.7072C18.5854 15.0751 18.4976 15.4375 18.3305 15.7652C18.1635 16.093 17.9218 16.377 17.6249 16.5943L14.2539 18.7836C13.9345 18.9664 13.5769 19.072 13.2094 19.0919C12.842 19.1117 12.475 19.0454 12.1378 18.8981L10.6996 18.1653C10.3632 18.018 9.99697 17.9517 9.63028 17.9715C9.26359 17.9915 8.9067 18.097 8.58814 18.2798L6.83851 19.4019C6.54221 19.6197 6.30093 19.9037 6.13389 20.2314C5.96689 20.559 5.87882 20.9212 5.87671 21.289L5.98659 23.3546C6.02671 23.7198 6.15202 24.0705 6.3525 24.3784C6.55302 24.6863 6.82302 24.9428 7.14084 25.1272L8.97293 26.0661C9.3087 26.2151 9.67489 26.2828 10.0418 26.2637C10.4087 26.2446 10.7658 26.1392 11.0844 25.9562L12.8203 24.8294C13.1163 24.6114 13.3575 24.3273 13.5244 23.9997C13.6914 23.6721 13.7796 23.3101 13.7821 22.9424L13.6951 21.3302C13.6961 20.9622 13.7837 20.5997 13.9508 20.2719C14.1179 19.944 14.3598 19.6602 14.6569 19.4431L18.0279 17.2492C18.3473 17.0661 18.7053 16.9607 19.0729 16.9416C19.4405 16.9225 19.8074 16.9902 20.144 17.1393L21.5776 17.8676C21.9142 18.0166 22.2812 18.0843 22.6488 18.0652C23.0164 18.0461 23.3743 17.9408 23.6937 17.7576L25.4296 16.6309C25.7259 16.4133 25.9669 16.1292 26.1331 15.8015C26.2994 15.4737 26.3863 15.1114 26.3868 14.7439L26.2953 12.6599Z" fill="#34D399"/>
<path d="M32.4456 4.40292H39.3118L42.5323 17.4367L45.7527 4.40292H52.9228L46.3908 25.3055H38.6434L32.4456 4.40292Z" fill="#18181B"/>
<path d="M59.6638 25.5486C57.9624 25.5486 56.6357 25.0017 55.6838 23.908C54.7318 22.8142 54.2558 21.3255 54.2558 19.4419V10.0843H60.6967V19.1684C60.6967 19.6343 60.8183 19.9989 61.0613 20.2622C61.3246 20.5052 61.6588 20.6267 62.0639 20.6267C62.469 20.6267 62.8842 20.5052 63.3096 20.2622L63.6438 24.4852C63.1982 24.8295 62.6108 25.0929 61.8816 25.2751C61.1727 25.4574 60.4334 25.5486 59.6638 25.5486ZM57.4763 7.80567C56.5243 7.80567 55.7141 7.51198 55.0457 6.9246C54.3976 6.31696 54.0735 5.57768 54.0735 4.70674C54.0735 3.83579 54.4178 3.10663 55.1065 2.51925C55.7952 1.93187 56.5851 1.63818 57.4763 1.63818C58.408 1.63818 59.208 1.942 59.8764 2.54964C60.5651 3.15727 60.9094 3.8763 60.9094 4.70674C60.9094 5.59793 60.5651 6.33722 59.8764 6.9246C59.1878 7.51198 58.3877 7.80567 57.4763 7.80567Z" fill="#18181B"/>
<path d="M65.413 10.297H71.8236V13.3959C72.2894 12.2009 72.9173 11.3198 73.7072 10.7527C74.5174 10.1653 75.4592 9.87162 76.5327 9.87162L77.4138 14.8238C75.4896 14.8238 74.0718 15.0365 73.1603 15.4619C72.2692 15.8669 71.8236 16.5151 71.8236 17.4063V25.3055H65.413V10.297Z" fill="#18181B"/>
<path d="M86.9624 25.5486C85.261 25.5486 83.742 25.2144 82.4052 24.546C81.0886 23.8776 80.0556 22.956 79.3062 21.7812C78.5771 20.5862 78.2125 19.2191 78.2125 17.6797C78.2125 16.1404 78.5872 14.7833 79.3366 13.6086C80.086 12.4136 81.119 11.492 82.4355 10.8438C83.7723 10.1957 85.2914 9.87162 86.9928 9.87162C88.7144 9.87162 90.2335 10.2058 91.5501 10.8742C92.8869 11.5224 93.9198 12.4338 94.649 13.6086C95.3781 14.7833 95.7427 16.1404 95.7427 17.6797C95.7427 19.2393 95.368 20.6166 94.6186 21.8116C93.8894 22.9864 92.8565 23.908 91.5197 24.5764C90.2031 25.2245 88.684 25.5486 86.9624 25.5486ZM87.0232 20.9913C87.8536 20.9913 88.5321 20.6875 89.0588 20.0799C89.6056 19.452 89.8791 18.6519 89.8791 17.6797C89.8791 16.7075 89.6056 15.9176 89.0588 15.3099C88.5321 14.6821 87.8536 14.3681 87.0232 14.3681C86.1928 14.3681 85.5041 14.6821 84.9572 15.3099C84.4306 15.9176 84.1673 16.7075 84.1673 17.6797C84.1673 18.6519 84.4306 19.452 84.9572 20.0799C85.5041 20.6875 86.1928 20.9913 87.0232 20.9913Z" fill="#18181B"/>
<path d="M106.618 32.2629C105.504 32.2629 104.441 32.1515 103.428 31.9287L103.914 27.4322C104.704 27.5538 105.433 27.6145 106.101 27.6145C107.357 27.6145 108.309 27.2398 108.957 26.4904C109.605 25.7612 109.99 24.5257 110.112 22.7838C108.917 24.465 107.094 25.3055 104.643 25.3055C103.306 25.3055 102.071 24.9612 100.937 24.2725C99.8226 23.5839 98.9314 22.6522 98.263 21.4774C97.6148 20.3027 97.2908 19.0165 97.2908 17.619C97.2908 16.2011 97.6148 14.9049 98.263 13.7301C98.9111 12.5351 99.7922 11.5933 100.906 10.9046C102.04 10.2159 103.276 9.87162 104.613 9.87162C105.848 9.87162 106.922 10.1957 107.833 10.8438C108.765 11.4717 109.373 12.3224 109.656 13.3959V9.87162H116.067V21.4471C116.067 24.9916 115.256 27.6753 113.636 29.4982C112.036 31.3414 109.697 32.2629 106.618 32.2629ZM106.618 20.7483C107.428 20.7483 108.127 20.4647 108.714 19.8976C109.302 19.3102 109.616 18.6215 109.656 17.8316V17.5886C109.616 16.8189 109.292 16.1404 108.684 15.553C108.097 14.9656 107.408 14.6719 106.618 14.6719C105.788 14.6719 105.079 14.9757 104.491 15.5834C103.904 16.1708 103.61 16.8797 103.61 17.7101C103.61 18.5405 103.904 19.2596 104.491 19.8672C105.079 20.4546 105.788 20.7483 106.618 20.7483Z" fill="#18181B"/>
<path d="M125.859 25.5486C124.543 25.5486 123.307 25.2043 122.152 24.5156C121.018 23.8067 120.107 22.8547 119.418 21.6597C118.729 20.4445 118.385 19.0975 118.385 17.619C118.385 16.1606 118.729 14.8441 119.418 13.6693C120.107 12.4743 121.028 11.5426 122.183 10.8742C123.337 10.2058 124.563 9.87162 125.859 9.87162C126.912 9.87162 127.884 10.1653 128.776 10.7527C129.687 11.3401 130.376 12.2211 130.842 13.3959V9.87162H137.222V25.3055H130.842V22.48C129.829 24.5257 128.168 25.5486 125.859 25.5486ZM127.834 20.7483C128.644 20.7483 129.333 20.4647 129.9 19.8976C130.487 19.3102 130.801 18.6215 130.842 17.8316V17.5886C130.801 16.7784 130.477 16.0897 129.869 15.5226C129.282 14.9555 128.604 14.6719 127.834 14.6719C126.983 14.6719 126.254 14.9757 125.646 15.5834C125.059 16.1708 124.765 16.8797 124.765 17.7101C124.765 18.5608 125.069 19.2798 125.677 19.8672C126.284 20.4546 127.003 20.7483 127.834 20.7483Z" fill="#18181B"/>
<path d="M140.299 10.297H146.406V13.3959C147.581 11.0464 149.444 9.87162 151.996 9.87162C153.941 9.87162 155.46 10.5704 156.553 11.968C157.667 13.3453 158.224 15.2593 158.224 17.7101V25.3055H151.844V17.0721C151.844 16.2011 151.652 15.5327 151.267 15.0669C150.902 14.601 150.386 14.3681 149.717 14.3681C149.231 14.3681 148.755 14.5301 148.29 14.8542C147.824 15.158 147.439 15.6036 147.135 16.191C146.851 16.7784 146.71 17.4468 146.71 18.1962V25.3055H140.299V10.297Z" fill="#18181B"/>
</svg>
