<svg width="140" height="32" viewBox="0 0 140 32" fill="none" xmlns="http://www.w3.org/2000/svg">
<path d="M27.1126 12.5896L27.0939 12.571C27.0924 12.5699 27.0912 12.5685 27.0905 12.5669L15.4096 0.885742L3.72884 12.5666C3.72749 12.568 3.72674 12.5698 3.72538 12.5706L3.70611 12.5893C1.91996 14.3855 0.785447 16.7272 0.482924 19.2422C0.180401 21.7572 0.727229 24.3012 2.03647 26.4697C3.34573 28.6383 5.34226 30.307 7.7087 31.2105C10.0751 32.1139 12.6757 32.2005 15.0969 31.4562C15.3006 31.3939 15.5184 31.3939 15.7222 31.4562C18.1432 32.2002 20.7436 32.1136 23.1099 31.21C25.4762 30.3064 27.4725 28.6378 28.7817 26.4694C30.0908 24.301 30.6377 21.7572 30.3353 19.2423C30.0329 16.7275 28.8985 14.3858 27.1126 12.5896ZM7.88236 20.2924C7.8255 20.3493 7.7804 20.4168 7.74965 20.491C7.71888 20.5652 7.70304 20.6449 7.70306 20.7253C7.72384 22.7869 8.30648 24.8037 9.38826 26.5589C9.41283 26.5987 9.42418 26.6453 9.4207 26.6919C9.41722 26.7385 9.39907 26.7828 9.36885 26.8186C9.33864 26.8543 9.2979 26.8795 9.25247 26.8907C9.20704 26.9018 9.15924 26.8984 9.11593 26.8807C8.30268 26.5387 7.56388 26.0414 6.94085 25.4168C5.66406 24.1398 4.94627 22.4082 4.9451 20.6023C4.94394 18.7965 5.65952 17.064 6.93468 15.7854L15.4096 7.31128L23.8841 15.7854C25.1594 17.0638 25.8753 18.7964 25.874 20.6023C25.873 22.4082 25.1551 24.1398 23.8782 25.4168C23.2551 26.0414 22.5164 26.5387 21.7033 26.8807C21.6598 26.8984 21.612 26.9018 21.5666 26.8907C21.5212 26.8795 21.4805 26.8542 21.4502 26.8186C21.42 26.7828 21.4018 26.7385 21.3983 26.6917C21.3948 26.6451 21.4062 26.5985 21.4307 26.5587C22.5128 24.8037 23.0957 22.7869 23.1168 20.7253C23.1168 20.6449 23.1008 20.5652 23.0699 20.4909C23.039 20.4165 22.9937 20.3491 22.9367 20.2922L18.9283 16.0405C18.8883 16.0072 18.8381 15.9889 18.786 15.9889C18.7341 15.9889 18.6838 16.0072 18.6439 16.0405C18.604 16.0737 18.5771 16.12 18.5678 16.1711C18.5584 16.2222 18.5673 16.2749 18.593 16.3201C20.1498 19.1374 18.8111 23.184 16.5786 25.4168L16.5668 25.4286C16.2587 25.7334 15.8427 25.9043 15.4093 25.9041C14.9758 25.904 14.56 25.7328 14.252 25.4278L14.2412 25.4168C12.0079 23.184 10.6698 19.1378 12.2269 16.3207C12.2525 16.2755 12.2614 16.2228 12.2521 16.1717C12.2428 16.1206 12.2159 16.0743 12.176 16.0411C12.1361 16.0078 12.0858 15.9895 12.0338 15.9895C11.9819 15.9895 11.9315 16.0078 11.8917 16.0411L7.88236 20.2924Z" fill="url(#paint0_linear_2436_1035)"/>
<path d="M55.8485 10.6418H59.7144L55.7044 24.0405H51.2862L49.4133 16.1166L47.5163 24.0405H43.0981L39.0881 10.6418H43.1942L45.2832 20.0545L47.3482 10.6418H51.6944L53.7594 20.0545L55.8485 10.6418Z" fill="#18181B"/>
<path d="M69.7565 19.7904C70.3488 19.2141 70.6449 18.3977 70.6449 17.3412C70.6449 16.2846 70.3488 15.4762 69.7565 14.916C69.1642 14.3397 68.4838 14.0515 67.7155 14.0515C66.9471 14.0515 66.2667 14.3397 65.6744 14.916C65.0821 15.4922 64.786 16.3087 64.786 17.3652C64.786 18.4217 65.0821 19.2381 65.6744 19.8144C66.2667 20.3747 66.9471 20.6548 67.7155 20.6548C68.4838 20.6548 69.1642 20.3667 69.7565 19.7904ZM62.3848 22.2876C61.2002 21.007 60.6079 19.3662 60.6079 17.3652C60.6079 15.3642 61.2002 13.7234 62.3848 12.4427C63.5694 11.1461 65.0101 10.4978 66.7069 10.4978C68.4198 10.4978 69.7325 11.1301 70.6449 12.3947V10.6418H74.7509V24.0405H70.6449V22.0955C69.6524 23.5042 68.3238 24.2086 66.6589 24.2086C64.9941 24.2086 63.5694 23.5683 62.3848 22.2876Z" fill="#18181B"/>
<path d="M76.6537 10.6418H81.0239L84.0734 20.6068L87.1229 10.6418H91.4931L86.7387 24.0405H81.4081L76.6537 10.6418Z" fill="#18181B"/>
<path d="M99.0803 24.2086C97.1273 24.2086 95.5265 23.5843 94.2779 22.3357C93.0293 21.071 92.405 19.3982 92.405 17.3172C92.405 15.2361 93.0213 13.5793 94.2539 12.3467C95.5025 11.1141 97.1113 10.4978 99.0803 10.4978C101.049 10.4978 102.682 11.1061 103.979 12.3227C105.275 13.5393 105.924 15.2281 105.924 17.3892C105.924 17.8534 105.892 18.2856 105.828 18.6858H96.6071C96.6871 19.2781 96.9513 19.7664 97.3995 20.1506C97.8477 20.5187 98.3279 20.7028 98.8402 20.7028C99.3685 20.7028 99.7607 20.6548 100.017 20.5588C100.273 20.4467 100.457 20.3427 100.569 20.2466C100.697 20.1346 100.857 19.9585 101.049 19.7183H105.492C105.107 21.063 104.339 22.1516 103.186 22.984C102.034 23.8004 100.665 24.2086 99.0803 24.2086ZM101.65 16.1166C101.586 15.4922 101.313 14.988 100.833 14.6038C100.353 14.2036 99.7847 14.0035 99.1283 14.0035C98.472 14.0035 97.9197 14.2036 97.4715 14.6038C97.0233 14.988 96.7431 15.4922 96.6311 16.1166H101.65Z" fill="#18181B"/>
<path d="M112.667 10.6418V13.1391C113.628 11.3782 114.908 10.4978 116.509 10.4978V14.6758H115.501C114.556 14.6758 113.844 14.9 113.363 15.3482C112.899 15.7964 112.667 16.5808 112.667 17.7013V24.0405H108.561V10.6418H112.667Z" fill="#18181B"/>
<path d="M122.484 9.12908C122.02 9.59331 121.451 9.82543 120.779 9.82543C120.107 9.82543 119.538 9.59331 119.074 9.12908C118.61 8.66485 118.378 8.09657 118.378 7.42423C118.378 6.73589 118.61 6.1596 119.074 5.69537C119.538 5.23114 120.107 4.99902 120.779 4.99902C121.451 4.99902 122.02 5.23114 122.484 5.69537C122.948 6.1596 123.18 6.73589 123.18 7.42423C123.18 8.09657 122.948 8.66485 122.484 9.12908ZM118.738 24.0405V10.6418H122.844V24.0405H118.738Z" fill="#18181B"/>
<path d="M134.497 19.8384C135.041 19.2621 135.313 18.4297 135.313 17.3412C135.313 16.2526 135.033 15.4282 134.473 14.8679C133.913 14.2916 133.248 14.0035 132.48 14.0035C131.711 14.0035 131.047 14.2916 130.487 14.8679C129.943 15.4282 129.67 16.2526 129.67 17.3412C129.67 18.4297 129.951 19.2621 130.511 19.8384C131.087 20.4147 131.759 20.7028 132.528 20.7028C133.296 20.7028 133.953 20.4147 134.497 19.8384ZM127.509 22.3116C126.165 21.047 125.492 19.3822 125.492 17.3172C125.492 15.2521 126.165 13.6033 127.509 12.3707C128.854 11.1221 130.519 10.4978 132.504 10.4978C134.489 10.4978 136.146 11.1221 137.474 12.3707C138.819 13.6033 139.491 15.2521 139.491 17.3172C139.491 19.3822 138.827 21.047 137.498 22.3116C136.17 23.5763 134.513 24.2086 132.528 24.2086C130.543 24.2086 128.87 23.5763 127.509 22.3116Z" fill="#18181B"/>
<defs>
<linearGradient id="paint0_linear_2436_1035" x1="15.4091" y1="0.885742" x2="15.4091" y2="31.9575" gradientUnits="userSpaceOnUse">
<stop stop-color="#F0B645"/>
<stop offset="1" stop-color="#D694FF"/>
</linearGradient>
</defs>
</svg>
