<svg width="140" height="32" viewBox="0 0 140 32" fill="none" xmlns="http://www.w3.org/2000/svg">
<path d="M27.2503 11.9114L27.2316 11.8927C27.2301 11.8917 27.2289 11.8903 27.2281 11.8887L15.5473 0.20752L3.86653 11.8884C3.86519 11.8897 3.86443 11.8915 3.86308 11.8924L3.8438 11.9111C2.05766 13.7073 0.923143 16.049 0.620619 18.564C0.318096 21.079 0.864924 23.6229 2.17417 25.7915C3.48342 27.9601 5.47995 29.6288 7.8464 30.5322C10.2128 31.4357 12.8134 31.5223 15.2346 30.7779C15.4383 30.7156 15.6561 30.7156 15.8599 30.7779C18.2809 31.5219 20.8813 31.4354 23.2476 30.5318C25.6139 29.6282 27.6102 27.9596 28.9193 25.7912C30.2285 23.6228 30.7754 21.079 30.473 18.5641C30.1706 16.0493 29.0362 13.7076 27.2503 11.9114ZM8.02006 19.6142C7.96319 19.671 7.9181 19.7386 7.88734 19.8128C7.85658 19.887 7.84074 19.9666 7.84075 20.047C7.86154 22.1087 8.44418 24.1255 9.52595 25.8806C9.55052 25.9205 9.56188 25.9671 9.55839 26.0137C9.55491 26.0603 9.53677 26.1046 9.50654 26.1404C9.47633 26.1761 9.43559 26.2013 9.39016 26.2125C9.34474 26.2236 9.29694 26.2202 9.25362 26.2025C8.44037 25.8604 7.70157 25.3632 7.07855 24.7386C5.80175 23.4616 5.08396 21.7299 5.0828 19.9241C5.08164 18.1183 5.79721 16.3858 7.07238 15.1072L15.5473 6.63306L24.0218 15.1072C25.2971 16.3856 26.0129 18.1181 26.0117 19.9241C26.0107 21.7299 25.2928 23.4616 24.0159 24.7386C23.3928 25.3632 22.6541 25.8604 21.841 26.2025C21.7975 26.2202 21.7497 26.2236 21.7043 26.2125C21.6589 26.2013 21.6182 26.176 21.5879 26.1404C21.5577 26.1046 21.5395 26.0603 21.536 26.0135C21.5325 25.9669 21.5439 25.9203 21.5684 25.8805C22.6505 24.1255 23.2334 22.1087 23.2545 20.047C23.2545 19.9666 23.2385 19.887 23.2076 19.8127C23.1767 19.7383 23.1314 19.6709 23.0744 19.614L19.0659 15.3623C19.026 15.3289 18.9758 15.3107 18.9237 15.3107C18.8718 15.3107 18.8215 15.3289 18.7816 15.3623C18.7417 15.3954 18.7148 15.4417 18.7055 15.4929C18.6961 15.544 18.705 15.5966 18.7307 15.6419C20.2875 18.4592 18.9488 22.5058 16.7162 24.7386L16.7045 24.7504C16.3963 25.0552 15.9804 25.2261 15.547 25.2259C15.1135 25.2258 14.6976 25.0546 14.3897 24.7496L14.3789 24.7386C12.1456 22.5058 10.8075 18.4596 12.3646 15.6425C12.3902 15.5972 12.3991 15.5446 12.3898 15.4935C12.3805 15.4423 12.3536 15.396 12.3137 15.3629C12.2738 15.3295 12.2235 15.3113 12.1715 15.3113C12.1196 15.3113 12.0692 15.3295 12.0293 15.3629L8.02006 19.6142Z" fill="#FF675E"/>
<path d="M55.9872 9.96361H59.8531L55.8431 23.3623H51.4249L49.5519 15.4383L47.655 23.3623H43.2368L39.2268 9.96361H43.3329L45.4219 19.3763L47.4869 9.96361H51.8331L53.8981 19.3763L55.9872 9.96361Z" fill="#18181B"/>
<path d="M69.8951 19.1122C70.4874 18.5359 70.7836 17.7195 70.7836 16.6629C70.7836 15.6064 70.4874 14.798 69.8951 14.2377C69.3028 13.6615 68.6225 13.3733 67.8541 13.3733C67.0857 13.3733 66.4054 13.6615 65.8131 14.2377C65.2208 14.814 64.9247 15.6304 64.9247 16.687C64.9247 17.7435 65.2208 18.5599 65.8131 19.1362C66.4054 19.6965 67.0857 19.9766 67.8541 19.9766C68.6225 19.9766 69.3028 19.6885 69.8951 19.1122ZM62.5235 21.6094C61.3389 20.3288 60.7466 18.688 60.7466 16.687C60.7466 14.686 61.3389 13.0451 62.5235 11.7645C63.7081 10.4679 65.1488 9.81954 66.8456 9.81954C68.5585 9.81954 69.8711 10.4519 70.7836 11.7165V9.96361H74.8896V23.3623H70.7836V21.4173C69.7911 22.826 68.4624 23.5304 66.7976 23.5304C65.1328 23.5304 63.7081 22.89 62.5235 21.6094Z" fill="#18181B"/>
<path d="M76.7924 9.96361H81.1626L84.2121 19.9286L87.2616 9.96361H91.6318L86.8774 23.3623H81.5467L76.7924 9.96361Z" fill="#18181B"/>
<path d="M99.219 23.5304C97.266 23.5304 95.6652 22.906 94.4166 21.6574C93.168 20.3928 92.5437 18.72 92.5437 16.6389C92.5437 14.5579 93.16 12.9011 94.3926 11.6685C95.6412 10.4358 97.25 9.81954 99.219 9.81954C101.188 9.81954 102.821 10.4278 104.117 11.6444C105.414 12.8611 106.062 14.5499 106.062 16.711C106.062 17.1752 106.03 17.6074 105.966 18.0076H96.7458C96.8258 18.5999 97.0899 19.0882 97.5381 19.4723C97.9864 19.8405 98.4666 20.0246 98.9789 20.0246C99.5071 20.0246 99.8993 19.9766 100.155 19.8805C100.412 19.7685 100.596 19.6644 100.708 19.5684C100.836 19.4563 100.996 19.2802 101.188 19.0401H105.63C105.246 20.3848 104.478 21.4733 103.325 22.3058C102.172 23.1222 100.804 23.5304 99.219 23.5304ZM101.788 15.4383C101.724 14.814 101.452 14.3098 100.972 13.9256C100.492 13.5254 99.9233 13.3253 99.267 13.3253C98.6107 13.3253 98.0584 13.5254 97.6102 13.9256C97.162 14.3098 96.8818 14.814 96.7698 15.4383H101.788Z" fill="#18181B"/>
<path d="M112.806 9.96361V12.4609C113.766 10.7 115.047 9.81954 116.648 9.81954V13.9976H115.639C114.695 13.9976 113.982 14.2217 113.502 14.67C113.038 15.1182 112.806 15.9026 112.806 17.0231V23.3623H108.7V9.96361H112.806Z" fill="#18181B"/>
<path d="M122.623 8.45086C122.158 8.91509 121.59 9.1472 120.918 9.1472C120.245 9.1472 119.677 8.91509 119.213 8.45086C118.749 7.98663 118.517 7.41834 118.517 6.74601C118.517 6.05767 118.749 5.48138 119.213 5.01715C119.677 4.55292 120.245 4.3208 120.918 4.3208C121.59 4.3208 122.158 4.55292 122.623 5.01715C123.087 5.48138 123.319 6.05767 123.319 6.74601C123.319 7.41834 123.087 7.98663 122.623 8.45086ZM118.877 23.3623V9.96361H122.983V23.3623H118.877Z" fill="#18181B"/>
<path d="M134.635 19.1602C135.18 18.5839 135.452 17.7515 135.452 16.6629C135.452 15.5744 135.172 14.75 134.611 14.1897C134.051 13.6134 133.387 13.3253 132.618 13.3253C131.85 13.3253 131.186 13.6134 130.625 14.1897C130.081 14.75 129.809 15.5744 129.809 16.6629C129.809 17.7515 130.089 18.5839 130.65 19.1602C131.226 19.7365 131.898 20.0246 132.667 20.0246C133.435 20.0246 134.091 19.7365 134.635 19.1602ZM127.648 21.6334C126.303 20.3688 125.631 18.704 125.631 16.6389C125.631 14.5739 126.303 12.9251 127.648 11.6925C128.993 10.4438 130.658 9.81954 132.642 9.81954C134.627 9.81954 136.284 10.4438 137.613 11.6925C138.958 12.9251 139.63 14.5739 139.63 16.6389C139.63 18.704 138.966 20.3688 137.637 21.6334C136.308 22.898 134.651 23.5304 132.667 23.5304C130.682 23.5304 129.009 22.898 127.648 21.6334Z" fill="#18181B"/>
</svg>
